<svg viewBox="0 0 2500 2000" width="500" height="500" xmlns="http://www.w3.org/2000/svg">
	<defs>
		<style>
			path { fill: white; }
		</style>
		<circle id="bkg" cx="250" cy="250" r="240" fill="hsl(32 13% 44%)" stroke="white" stroke-width="20"/>
		<path id="n1" d="M259.8,107.5h1.4c5.8,0,11.5,5.2,17.1,15.7q-3.4,23.1-3.4,83.4v84.8q0,32.4.6,92.9c-1.5,5.5-4.7,8.2-9.5,8.2h-6.9c-5.3,0-9.2-2.7-11.6-8.2,0-1.9-.2-12.4-.7-31.4q0-37.5-.6-138.1c.4-21,.6-36.9.6-47.9v-.6h-.6c-13.5,18.2-21.7,28.2-24.7,30a19,19,0,0,1-5.4.7c-9.6-1.3-14.4-4.8-14.4-10.2v-8.2q13.5-24.6,44.5-60.9C250.5,110.9,255,107.5,259.8,107.5Z"/>
		<path id="n2" d="M240.4,107.8h10.3q34.4,0,45.1,37.6a96.9,96.9,0,0,1,1.4,17.1v6.2q0,48.2-41,106.6c-15.9,29-24.9,55.7-27.2,79.8v.3c0,4.9,9.5,7.4,28.5,7.4l13-.3c6,0,15.2-.5,27.4-1.4,3.6,1.5,5.4,3.5,5.4,6.1-1.5,16.7-8.1,25-19.8,25H250c-28.3,0-45.1-3.4-50.6-10.3q-2.7-3.7-2.7-17.7v-3.5q0-45.1,41.7-117.5c20-28.2,30.1-54.8,30.1-80v-3.4c0-11.4-6.2-18-18.5-19.9h-8.2c-8.7,1.2-13,5.3-13,12.3V155c0,4.2.2,10.1.7,17.8,0,3.9-5.5,6.2-16.4,6.8-8.7,0-13-7.3-13-21.9v-6.8c0-21.3,11.6-35.5,34.9-42.4A20,20,0,0,1,240.4,107.8Z"/>
		<path id="n3" d="M259.6,108.2c20.5,0,33.2,13.2,38.3,39.6.7,7.4,1.4,18.3,2,32.8,0,19.8-3.4,37.2-10.3,52q14.4,14,14.4,68.3,0,61.4-27.3,78.6c-14.6,8.2-29.7,12.3-45.2,12.3q-34,0-34.1-42.3V329.6q0-17.1,17.7-17.1c6.9,0,10.3,3.7,10.3,11,0,23.7,1.8,35.5,5.5,35.5.1.9.5,1.4,1.3,1.4h.7c12,0,23.4-4.3,34.2-13,5.5-6,8.2-22.2,8.2-48.5v-9.6c0-18.9-3.4-32.6-10.3-41-13.4,4.1-23.4,6.1-30,6.1h-.7c-8.7,0-13-4.3-13-12.9v-2.1c0-9.3,9.1-15.5,27.3-18.5,10.5-3.6,15.8-8.2,15.8-13.6,4.1-7.3,6.1-18,6.1-32.2v-15c0-15.9-6.8-23.9-20.5-23.9-16.9,2.1-25.3,6.2-25.3,12.3v2.7c.9,12.9,1.4,21.1,1.4,24.6,0,7.8-4.6,11.7-13.7,11.7h-4.1c-8.2,0-12.3-12.4-12.3-37,0-22.6,15.9-36.1,47.8-40.3A88.7,88.7,0,0,1,259.6,108.2Z"/>
		<path id="n4" d="M255.5,108.2c6.3,0,9.5,1.3,9.5,4.1q0,10-40.3,139.4h28C256.6,215.3,260,197,263,197c4.3-5.9,9.6-8.9,15.7-8.9s7.5,3.7,7.5,11c0,4.9-1.8,21.5-5.4,49.9,6.8-.5,11.8-.7,15-.7h.7c10.5,0,15.7,3,15.7,8.9v2c0,11.9-6.4,17.8-19.1,17.8h-13a499.1,499.1,0,0,0-2.8,53.3v4.1c0,11.9.7,29.4,2.1,52.7-3,3.1-8,4.7-15,4.7-11,0-16.5-20.2-16.5-60.8,0-9.9,1-27.5,2.8-52.6-9.7.9-16.1,1.3-19.2,1.3-25.9,0-38.9-1.3-38.9-4.1-2.4,0-4-2-4.8-6.1s4.8-17.3,14.3-41.7q24.8-70.5,35.6-111.4C241.2,110.9,247.2,108.2,255.5,108.2Z"/>
		<path id="n5" d="M303.3,111.6h.7c4.6,0,6.8,3.4,6.8,10.2v.7q0,15.9-29.4,21.9c-23.9,3.6-41.4,5.5-52.6,5.5l2.1,42.3c13.6-2.2,22.1-3.4,25.3-3.4,20.8,0,34.9,12.6,42.3,37.6,1.9,10.5,2.8,18,2.8,22.6v3.4q0,102.9-28.1,126.5a51.6,51.6,0,0,1-30,9.5q-40.5,0-51.3-30.7a65.7,65.7,0,0,1-2.7-18.5V328.3c0-12.3,5.7-18.5,17-18.5h6.2c3.2,1.5,4.8,3.5,4.8,6.2,0,4.3-.2,11.4-.7,21.2,2.2,14.1,8.3,21.1,18.5,21.1,0,.5,1.6.7,4.7.7h4.1c9.7,0,16.6-6.1,20.6-18.4a497.3,497.3,0,0,0,8.2-90.9v-13c-1.3-14.2-8.4-21.2-21.2-21.2H250c-11.4,0-18.7,5.9-21.9,17.8-4.4,5.4-8.3,8.2-11.6,8.2h-1.4c-5.7,0-10.7-3-15-8.9l.7-3.4V196.3q0-21-1.4-63.5c1.2-8.7,5-13,11.6-13h4.1C240.5,119.8,269.9,117,303.3,111.6Z"/>
		<path id="n6" d="M253.8,110.9c23.1,0,36.8,4.8,41,14.3s4.8,21,4.8,33.5v9.6q0,12.1-9.6,14.4h-7.5c-6,0-8.9-3.9-8.9-11.7,0-15.7-4.3-25.5-13-29.3a44.2,44.2,0,0,0-6.8-1.4c-9.5,0-16.1,5-19.9,15q-7.5,18.9-7.5,58.8c.5,11.7.7,18.4.7,19.8h.7c12.3-6.3,26.2-9.5,41.7-9.5,18.1,0,28.8,21.8,32.1,65.6v19.8q0,60.8-41.7,78.6a31.5,31.5,0,0,1-6.1.7h-8.2c-21.3,0-35.5-15.3-42.4-45.8q-3.1,0-4.8-98.4,0-94.6,19.1-119Q235.5,110.9,253.8,110.9ZM226.4,294.8q0,48.3,13,63.5a7.8,7.8,0,0,0,4.8,2.1h7.5c11.9,0,19.1-19.6,21.9-58.8v-2.7c0-22.9-3.4-37-10.3-42.4a25,25,0,0,0-10.9-2.7C235.1,253.8,226.4,267.4,226.4,294.8Z"/>
		<path id="n7" d="M299.6,113.6c5.7.9,8.6,2.1,8.8,3.4v2.8l-28.7,86.8Q267.4,249.2,251,363.8c-4.2,15.1-10.1,22.6-17.7,22.6h-2.8c-6.4-.6-9.6-3.6-9.6-8.9Q234.7,268.6,252.4,197l14.3-41c0-1.8,1-5.7,2.8-11.6l-8.2-.7c-12.9,0-34.5.2-65,.7-2.6,0-4.2-2.5-4.7-7.5v-8.2c0-7.7,4.5-12,13.6-13Q249.3,115.7,299.6,113.6Z"/>
		<path id="n8" d="M265.4,105.4c15.9,0,26.9,7.1,32.8,21.2,2.7,6.4,4.1,14.6,4.1,24.6v20.5q0,35.1-30.1,64.3,25.9,16.8,26,90.9v15q0,42.5-45.1,51.3c-2,.9-5.6,1.4-11,1.4-18,0-29.8-6.6-35.5-19.8q-8.8-24.2-8.9-93c0-16.6,9.6-33.1,28.7-49.2q-23.8-19.7-23.9-54v-1.4q0-48.1,22.5-60.8C239.7,109.1,253.2,105.4,265.4,105.4Zm-39,192.1v19.8c0,26,5.3,42,15.7,47.9l3.5.7h1.3c12,0,19.7-7.1,23.3-21.2q.6-15.3.6-24.6V318c0-36.3-7.2-58-21.8-64.9Q226.4,262.3,226.4,297.5Zm4.1-114.8c0,13.8,7.1,26.3,21.2,37.6q21.9-18.3,21.9-48.6V145.8c-1.5-8.7-4.9-13-10.3-13a38.1,38.1,0,0,0-25.3,9.5c-4.1,5.6-6.1,14.5-6.1,26.7C231.5,169,231.1,173.6,230.5,182.7Z"/>
		<path id="n9" d="M251,113.3h8.2c18.3,0,31.2,11.6,39,34.8q6.2,35.3,6.1,84.1v6.2q0,125.6-25.9,134.6c-12.3,9.2-24.6,13.7-36.9,13.7q-29.4,0-40.4-24.6-5.4-12-5.4-29.4V305.4c0-4.1,2.5-6.2,7.5-6.2h6.1c8.7,0,13,3.4,13,10.3a152.4,152.4,0,0,1,.7,15.7v1.4a5,5,0,0,1-.7,2.7c2.5,18.7,8,28,16.4,28h5.5c13.7,0,23-8.2,28-24.6,2.8-10.8,4.1-28.1,4.1-51.9,0-5.7-.4-13.9-1.3-24.6h-1.4c-11.3,5.4-22.2,8.2-32.8,8.2H238q-30.7,0-41.7-53.4a116.6,116.6,0,0,1-.6-13.6v-9.6c0-34,11.3-57.7,34.1-71.1A64.1,64.1,0,0,1,251,113.3Zm-26.6,75.2V198c0,20.9,6.3,33.2,19.1,37h9.6c4,0,11.3-2.8,21.9-8.2.4-12,.6-19.1.6-21.2q0-50.4-10.2-61.6c-3.9-1.3-9.6-2-17.1-2q-16.8,0-21.9,29.4A78.2,78.2,0,0,0,224.4,188.5Z"/>
		<path id="n10" d="M193.7,206.4v84.8q0,32.4.7,93c-1.6,5.4-4.8,8.2-9.6,8.2H178c-5.4,0-9.3-2.8-11.7-8.2q0-3-.6-31.5,0-37.3-.7-138.1c.4-20.9.7-36.9.7-47.8v-.7H165c-13.5,18.2-21.7,28.2-24.6,30.1a24.3,24.3,0,0,1-5.5.7c-9.6-1.4-14.4-4.8-14.4-10.3v-8.2c9-16.4,23.9-36.7,44.5-60.8,4.3-6.9,8.9-10.3,13.6-10.3H180c5.8,0,11.5,5.2,17.1,15.7Q193.7,146.1,193.7,206.4Zm185.8,2.4q0,142.3-38.3,170.9c-10.7,8.7-24.2,13-40.4,13q-48,0-62.8-52c-2.8-18-4.1-32.3-4.1-43V279.9q0-87.6,26.6-142.2,18-27.3,32.8-27.3c2.9-1.4,7.4-2.1,13.7-2.1h6.8c16.7,0,29.4,5.7,38.3,17.1C370.3,142.3,379.5,170.1,379.5,208.8Zm-29.4-11.6q0-41.7-18.5-52c-4.4-5.4-8.3-8.2-11.6-8.2H307.7q-31.8,0-41,88.2-3.4,11-5.5,60.9c0,37.3,6.1,61.3,18.5,71.7,8.8,4.1,15.9,6.2,21.1,6.2,17.4,0,29.2-10.9,35.6-32.8q13.7-60.9,13.7-106.7Z"/>
		<path id="n11" d="M216.2,206.6v84.8q0,32.4.6,92.9c-1.6,5.5-4.8,8.2-9.5,8.2h-6.9c-5.3,0-9.2-2.7-11.6-8.2,0-1.9-.2-12.4-.7-31.4q0-37.5-.7-138.1c.5-21,.7-36.9.7-47.9v-.6h-.7q-20.1,27.3-24.6,30a19,19,0,0,1-5.4.7c-9.6-1.3-14.4-4.8-14.4-10.2v-8.2q13.5-24.6,44.4-60.9c4.4-6.8,8.9-10.2,13.7-10.2h1.4c5.8,0,11.5,5.2,17.1,15.7Q216.2,146.3,216.2,206.6Zm111.4,0q0-60.3,3.4-83.4c-5.6-10.5-11.3-15.7-17.1-15.7h-1.4c-4.7,0-9.3,3.4-13.6,10.2q-31,36.3-44.5,60.9v8.2c0,5.4,4.8,8.9,14.4,10.2a20.2,20.2,0,0,0,5.5-.7q4.3-2.7,24.6-30h.6v.6c0,11-.2,26.9-.6,47.9q.6,100.6.6,138.1c.5,19,.7,29.5.7,31.4,2.4,5.5,6.3,8.2,11.7,8.2h6.8c4.8,0,8-2.7,9.6-8.2q-.7-60.4-.7-92.9Z"/>
		<path id="n12" d="M212.8,206.8v84.7c0,21.7.3,52.7.7,93-1.6,5.5-4.8,8.2-9.6,8.2h-6.8c-5.3,0-9.2-2.7-11.6-8.2,0-1.9-.2-12.4-.7-31.4q0-37.5-.7-138.1c.5-21,.7-36.9.7-47.9v-.7h-.7c-13.4,18.3-21.6,28.3-24.6,30.1a19.3,19.3,0,0,1-5.5.7c-9.5-1.4-14.3-4.8-14.3-10.3v-8.2c9-16.4,23.8-36.6,44.4-60.8,4.3-6.8,8.9-10.3,13.7-10.3h1.4c5.8,0,11.5,5.3,17,15.8C214,138.7,212.8,166.5,212.8,206.8Zm142,153.8c-12.1.9-21.3,1.3-27.3,1.3s-9.1.4-13,.4c-19,0-28.5-2.5-28.5-7.4v-.3q3.5-36.3,27.1-79.8,41.1-58.5,41.1-106.7V162a96.9,96.9,0,0,0-1.4-17.1q-10.8-37.7-45.1-37.6H297.4a20,20,0,0,0-5.4.7c-23.3,6.9-34.9,21.1-34.9,42.4v6.8c0,14.6,4.3,21.9,13,21.9,10.9-.6,16.4-2.9,16.4-6.9-.5-7.6-.7-13.5-.7-17.7v-2.8c0-7,4.3-11.1,13-12.3H307c12.3,1.9,18.5,8.5,18.5,19.9v3.4c0,25.2-10.1,51.8-30.1,80q-41.7,72.2-41.7,117.5v3.4c0,9.4.9,15.3,2.7,17.8,5.5,6.9,22.3,10.3,50.6,10.3h33.5c11.7,0,18.3-8.3,19.8-25C360.3,364.1,358.5,362.1,354.8,360.6Z"/>
		<path id="n13" d="M210.9,206.6v84.8c0,21.6.3,52.6.7,92.9-1.6,5.5-4.8,8.2-9.5,8.2h-6.9c-5.3,0-9.2-2.7-11.6-8.2,0-1.9-.2-12.4-.7-31.4q0-37.5-.7-138.1c.5-21,.7-36.9.7-47.9v-.6h-.7q-20.1,27.3-24.6,30a19,19,0,0,1-5.4.7c-9.6-1.3-14.4-4.8-14.4-10.2v-8.2q13.5-24.6,44.4-60.9c4.4-6.8,8.9-10.2,13.7-10.2h1.4c5.8,0,11.5,5.2,17.1,15.7Q211,146.3,210.9,206.6Zm136.9,25.5q10.3-22.3,10.3-52c-.6-14.5-1.3-25.4-2.1-32.8-5-26.4-17.7-39.7-38.2-39.7-3.5,0-8.7.7-15.8,2.1-31.9,4.2-47.8,17.7-47.8,40.3q0,36.9,12.3,36.9h4.1c9.1,0,13.7-3.8,13.7-11.6,0-3.5-.5-11.7-1.4-24.6V148c0-6.1,8.4-10.2,25.3-12.3,13.7,0,20.5,7.9,20.5,23.9v15c0,14.2-2.1,24.9-6.2,32.2,0,5.4-5.2,10-15.7,13.6-18.2,3-27.3,9.2-27.3,18.5v2c0,8.7,4.3,13,13,13h.7c6.6,0,16.6-2,30-6.1,6.9,8.4,10.3,22.1,10.3,41v9.6c0,26.3-2.8,42.5-8.2,48.5-10.8,8.7-22.2,13-34.2,13h-.7c-.8,0-1.2-.5-1.3-1.4-3.7,0-5.5-11.8-5.5-35.5,0-7.3-3.4-11-10.3-11q-17.7,0-17.7,17.1V349c0,28.2,11.3,42.3,34.1,42.3,15.5,0,30.6-4.1,45.2-12.3q27.3-17.2,27.3-78.6Q362.2,246.1,347.8,232.1Z"/>
		<path id="n14" d="M205.7,208.6v84.7q0,32.6.6,93c-1.6,5.5-4.7,8.2-9.5,8.2h-6.9c-5.3,0-9.2-2.7-11.6-8.2,0-1.9-.2-12.4-.7-31.5q0-37.4-.7-138c.5-21,.7-37,.7-47.9v-.7h-.7c-13.4,18.3-21.6,28.3-24.6,30.1a19,19,0,0,1-5.4.7c-9.6-1.4-14.4-4.8-14.4-10.3v-8.2q13.5-24.6,44.4-60.8c4.4-6.8,8.9-10.3,13.7-10.3H192c5.8,0,11.5,5.3,17.1,15.8Q205.7,148.2,205.7,208.6Zm146.1,37h-.7c-3.2,0-8.2.3-15.1.7,3.7-28.3,5.5-45,5.5-49.9,0-7.3-2.5-10.9-7.5-10.9s-11.4,2.9-15.7,8.9q-4.5,0-10.3,54.7H280q40.3-129.4,40.3-139.5c0-2.7-3.2-4.1-9.5-4.1-8.4,0-14.3,2.7-17.8,8.2q-11,41.1-35.6,111.4c-9.5,24.4-14.3,38.3-14.3,41.7s2.4,6.2,4.8,6.2c0,2.7,13,4.1,38.9,4.1,3.1,0,9.5-.5,19.2-1.4-1.9,25.2-2.8,42.7-2.8,52.7q0,60.8,16.4,60.8c7.1,0,12.1-1.6,15.1-4.8-1.4-23.2-2.1-40.8-2.1-52.6v-4.1a473,473,0,0,1,2.8-53.3h13c12.7,0,19.1-6,19.1-17.8v-2.1C367.5,248.6,362.3,245.6,351.8,245.6Z"/>
		<path id="n15" d="M205.1,206.6v84.8c0,21.6.3,52.6.7,92.9-1.6,5.5-4.8,8.2-9.5,8.2h-6.9c-5.3,0-9.2-2.7-11.6-8.2,0-1.9-.2-12.4-.7-31.4q0-37.5-.7-138.1c.5-21,.7-36.9.7-47.9v-.6h-.7q-20.1,27.3-24.6,30a19,19,0,0,1-5.4.7c-9.6-1.3-14.4-4.8-14.4-10.2v-8.2q13.5-24.6,44.4-60.9c4.4-6.8,8.9-10.2,13.7-10.2h1.4c5.8,0,11.5,5.2,17.1,15.7Q205.2,146.3,205.1,206.6Zm156.1-92.8h-.7q-50.1,8.3-88.2,8.2h-4.1c-6.6,0-10.5,4.3-11.6,13,.9,28.4,1.3,49.5,1.3,63.6v32.8l-.6,3.4c4.3,5.9,9.3,8.9,15,8.9h1.4c3.3,0,7.1-2.8,11.6-8.2,3.2-11.9,10.5-17.8,21.9-17.8h1.3c12.9,0,20,7.1,21.2,21.2v13a488.7,488.7,0,0,1-8.2,90.9c-4,12.3-10.8,18.5-20.5,18.5h-4.1c-3.2,0-4.8-.3-4.8-.7-10.1,0-16.3-7.1-18.4-21.2.4-9.8.7-16.9.7-21.2,0-2.6-1.6-4.7-4.8-6.2h-6.2c-11.4,0-17.1,6.2-17.1,18.5v10.9a62.5,62.5,0,0,0,2.8,18.5q10.7,30.8,51.2,30.7a51,51,0,0,0,30.1-9.5q28.1-23.6,28-126.5v-3.4c0-4.6-.9-12.1-2.7-22.6-7.4-25-21.5-37.6-42.4-37.6-3.2,0-11.6,1.2-25.3,3.5l-2-42.4c11.1,0,28.7-1.8,52.6-5.5q29.4-6,29.4-21.9V124C368,117.2,365.7,113.8,361.2,113.8Z"/>
		<path id="n16" d="M212.7,206.6v84.8q0,32.4.6,92.9c-1.6,5.5-4.7,8.2-9.5,8.2h-6.9c-5.3,0-9.2-2.7-11.6-8.2,0-1.9-.2-12.4-.7-31.4q0-37.5-.7-138.1c.5-21,.7-36.9.7-47.9v-.6h-.7q-20.1,27.3-24.6,30a19,19,0,0,1-5.4.7c-9.6-1.3-14.4-4.8-14.4-10.2v-8.2Q153,154,183.9,117.7c4.4-6.8,8.9-10.2,13.7-10.2H199c5.8,0,11.5,5.2,17.1,15.7Q212.7,146.3,212.7,206.6ZM360.5,292v19.9q0,60.6-41.7,78.6a43.3,43.3,0,0,1-6.2.7h-8.2q-31.9,0-42.4-45.8c-2,0-3.6-32.9-4.7-98.5q0-94.6,19.1-118.9c12-10,24-15.1,36.2-15.1,23.2,0,36.8,4.8,41,14.4s4.8,21,4.8,33.5v9.6c0,8.1-3.2,12.8-9.5,14.3h-7.6c-5.9,0-8.8-3.9-8.8-11.6,0-15.7-4.4-25.5-13-29.4a58.9,58.9,0,0,0-6.9-1.4c-9.4,0-16,5-19.8,15.1q-7.5,18.8-7.5,58.8c.4,11.7.7,18.3.7,19.8h.7q18.4-9.6,41.7-9.6Q355.6,226.4,360.5,292Zm-28,8.9c0-22.9-3.5-37-10.3-42.4a25.4,25.4,0,0,0-10.9-2.7c-17.4,0-26,13.7-26,41q0,48.4,13,63.6a7.8,7.8,0,0,0,4.8,2.1h7.5q17.7,0,21.9-58.8Z"/>
		<path id="n17" d="M207.8,206.6v84.8q0,32.4.7,92.9c-1.6,5.5-4.8,8.2-9.6,8.2h-6.8c-5.4,0-9.3-2.7-11.7-8.2,0-1.9-.2-12.4-.6-31.4q0-37.5-.7-138.1c.4-21,.7-36.9.7-47.9v-.6h-.7q-20.2,27.3-24.6,30a19.7,19.7,0,0,1-5.5.7c-9.6-1.3-14.4-4.8-14.4-10.2v-8.2c9-16.4,23.9-36.7,44.5-60.9,4.3-6.8,8.9-10.2,13.6-10.2h1.4c5.8,0,11.5,5.2,17.1,15.7Q207.8,146.3,207.8,206.6Zm148.7-90.4c-33.5,1.4-65,2-94.4,2-9.1,1.1-13.6,5.4-13.6,13v8.2c.5,5,2.1,7.5,4.7,7.5,30.5-.4,52.1-.6,65-.6l8.2.6c-1.8,6-2.7,9.8-2.7,11.7l-14.4,41q-17.7,71.6-31.4,180.5c0,5.3,3.1,8.3,9.5,8.8h2.8q11.4,0,17.7-22.5,16.5-114.7,28.7-157.2l28.8-86.9v-2.7C365.1,118.2,362.2,117.1,356.5,116.2Z"/>
		<path id="n18" d="M211.5,205.9v84.8q0,32.4.6,92.9c-1.6,5.5-4.7,8.2-9.5,8.2h-6.9c-5.3,0-9.2-2.7-11.6-8.2,0-1.9-.2-12.4-.7-31.4q0-37.5-.6-138.1c.4-21,.6-36.9.6-47.8v-.7h-.6c-13.5,18.2-21.7,28.2-24.7,30.1a23.5,23.5,0,0,1-5.4.6q-14.4-2-14.4-10.2v-8.2q13.5-24.6,44.5-60.9c4.3-6.8,8.8-10.2,13.6-10.2h1.4c5.8,0,11.5,5.2,17.1,15.7Q211.5,145.6,211.5,205.9ZM331.6,236q25.9,16.8,26,90.9v15c0,28.3-15.1,45.4-45.1,51.3-2,.9-5.6,1.4-11,1.4-18,0-29.8-6.6-35.5-19.8q-8.8-24.2-8.9-93c0-16.6,9.6-33.1,28.7-49.2q-23.9-19.7-23.9-54v-1.4q0-48.1,22.5-60.8c14.7-7.3,28.2-11,40.4-11,15.9,0,26.9,7.1,32.8,21.2,2.7,6.4,4.1,14.6,4.1,24.6v20.5Q361.7,206.8,331.6,236Zm-1.4,82c0-36.3-7.3-58-21.8-64.9q-22.6,9.2-22.6,44.4v19.8q0,39,15.7,47.9l3.4.7h1.4c12,0,19.7-7.1,23.3-21.2q.6-15.3.6-24.6ZM333,145.8c-1.5-8.7-4.9-13-10.3-13a38.1,38.1,0,0,0-25.3,9.5c-4.1,5.6-6.1,14.5-6.1,26.7-.4,0-.8,4.6-1.4,13.7,0,13.8,7.1,26.3,21.2,37.6Q333,202,333,171.7Z"/>
		<path id="n19" d="M210.8,206.6v84.8q0,32.4.7,92.9c-1.6,5.5-4.8,8.2-9.6,8.2h-6.8c-5.4,0-9.3-2.7-11.7-8.2,0-1.9-.2-12.4-.6-31.4q0-37.5-.7-138.1c.4-21,.7-36.9.7-47.9v-.6h-.7q-20.2,27.3-24.6,30a20.2,20.2,0,0,1-5.5.7c-9.6-1.3-14.4-4.8-14.4-10.2v-8.2q13.5-24.6,44.5-60.9c4.3-6.8,8.9-10.2,13.6-10.2h1.4c5.8,0,11.5,5.2,17.1,15.7Q210.8,146.3,210.8,206.6Zm151.6,29.6v6.1q0,125.6-26,134.7c-12.3,9.1-24.6,13.6-36.9,13.6q-29.4,0-40.4-24.6-5.4-11.8-5.4-29.4V309.3c0-4.1,2.5-6.2,7.5-6.2h6.1c8.7,0,13,3.5,13,10.3a152.4,152.4,0,0,1,.7,15.7v1.4a5,5,0,0,1-.7,2.7c2.5,18.7,8,28.1,16.4,28.1h5.5c13.7,0,23-8.2,28-24.7,2.8-10.8,4.1-28.1,4.1-51.9,0-5.7-.4-13.9-1.3-24.6h-1.4c-11.3,5.5-22.2,8.2-32.8,8.2h-2.7q-30.9,0-41.7-53.3a96.5,96.5,0,0,1-.7-13.7v-9.6q0-50.8,34.2-71.1a66.2,66.2,0,0,1,21.1-3.4h8.2q27.4,0,39,34.9C360.3,175.5,362.4,203.6,362.4,236.2Zm-28.7-26.7c0-33.6-3.5-54.1-10.3-61.5q-5.8-2.1-17.1-2.1c-11.2,0-18.4,9.8-21.9,29.4a85.7,85.7,0,0,0-2,17.1V202c0,20.8,6.4,33.1,19.1,36.9h9.6c4,0,11.3-2.7,21.9-8.2C333.4,218.7,333.7,211.7,333.7,209.5Z"/>
		<path id="n20" d="M211.4,366.6q-2.2,24.9-19.8,24.9H158.1q-42.4,0-50.6-10.3c-1.9-2.5-2.8-8.4-2.8-17.7v-3.4q0-45.3,41.7-117.6c20.1-28.2,30.1-54.8,30.1-80v-3.4c0-11.4-6.1-18-18.4-19.8h-8.2c-8.7,1.1-13,5.2-13,12.3v2.7c0,4.2.2,10.1.6,17.8,0,4-5.4,6.2-16.4,6.8q-12.9,0-12.9-21.9v-6.8q0-31.9,34.8-42.4a25.9,25.9,0,0,1,5.5-.7h10.2c22.9,0,38,12.6,45.2,37.6a97.5,97.5,0,0,1,1.3,17.1V168q0,48.1-41,106.6-23.7,43.6-27.2,79.8v.4c0,4.9,9.5,7.3,28.6,7.3l13-.3c6,0,15.1-.5,27.3-1.4C209.6,361.9,211.4,363.9,211.4,366.6ZM395.3,209q0,142.3-38.3,170.9c-10.7,8.6-24.2,13-40.3,13-32.1,0-53-17.3-62.9-52-2.8-18-4.1-32.3-4.1-43V280.1q0-87.8,26.6-142.2c12-18.2,22.9-27.4,32.8-27.4,2.9-1.3,7.4-2,13.7-2h6.8c16.7,0,29.4,5.7,38.3,17.1C386.1,142.4,395.3,170.2,395.3,209Zm-29.4-11.6c0-27.8-6.2-45.2-18.5-52-4.4-5.5-8.3-8.2-11.6-8.2H323.5q-31.8,0-41,88.2-3.5,10.9-5.5,60.8,0,56.1,18.5,71.8c8.8,4.1,15.9,6.2,21.2,6.2q25.9,0,35.5-32.9,13.7-60.7,13.7-106.6Z"/>
	</defs>

	<view id="1" viewBox="0 0 500 500"/><g transform="translate(0,0)"><use href="#bkg"/><use href="#n1"/></g>
	<view id="2" viewBox="500 0 500 500"/><g transform="translate(500,0)"><use href="#bkg"/><use href="#n2"/></g>
	<view id="3" viewBox="1000 0 500 500"/><g transform="translate(1000,0)"><use href="#bkg"/><use href="#n3"/></g>
	<view id="4" viewBox="1500 0 500 500"/><g transform="translate(1500,0)"><use href="#bkg"/><use href="#n4"/></g>
	<view id="5" viewBox="2000 0 500 500"/><g transform="translate(2000,0)"><use href="#bkg"/><use href="#n5"/></g>

	<view id="6" viewBox="0 500 500 500"/><g transform="translate(0,500)"><use href="#bkg"/><use href="#n6"/></g>
	<view id="7" viewBox="500 500 500 500"/><g transform="translate(500,500)"><use href="#bkg"/><use href="#n7"/></g>
	<view id="8" viewBox="1000 500 500 500"/><g transform="translate(1000,500)"><use href="#bkg"/><use href="#n8"/></g>
	<view id="9" viewBox="1500 500 500 500"/><g transform="translate(1500,500)"><use href="#bkg"/><use href="#n9"/></g>
	<view id="10" viewBox="2000 500 500 500"/><g transform="translate(2000,500)"><use href="#bkg"/><use href="#n10"/></g>

	<view id="11" viewBox="0 1000 500 500"/><g transform="translate(0,1000)"><use href="#bkg"/><use href="#n11"/></g>
	<view id="12" viewBox="500 1000 500 500"/><g transform="translate(500,1000)"><use href="#bkg"/><use href="#n12"/></g>
	<view id="13" viewBox="1000 1000 500 500"/><g transform="translate(1000,1000)"><use href="#bkg"/><use href="#n13"/></g>
	<view id="14" viewBox="1500 1000 500 500"/><g transform="translate(1500,1000)"><use href="#bkg"/><use href="#n14"/></g>
	<view id="15" viewBox="2000 1000 500 500"/><g transform="translate(2000,1000)"><use href="#bkg"/><use href="#n15"/></g>

	<view id="16" viewBox="0 1500 500 500"/><g transform="translate(0,1500)"><use href="#bkg"/><use href="#n16"/></g>
	<view id="17" viewBox="500 1500 500 500"/><g transform="translate(500,1500)"><use href="#bkg"/><use href="#n17"/></g>
	<view id="18" viewBox="1000 1500 500 500"/><g transform="translate(1000,1500)"><use href="#bkg"/><use href="#n18"/></g>
	<view id="19" viewBox="1500 1500 500 500"/><g transform="translate(1500,1500)"><use href="#bkg"/><use href="#n19"/></g>
	<view id="20" viewBox="2000 1500 500 500"/><g transform="translate(2000,1500)"><use href="#bkg"/><use href="#n20"/></g>

</svg>