		<svg id="sprites" role="presentation">
			<defs>
				<style>
					:root {
						/* Background and Layout Colors */
						--paper: #f5f1e8;
						--corner-color: #8b7355;
						--dark-brown: #3d2817;
						--taupe: #a89080;

						/* Habitat Colors */
						--forest-green: #4a7c59;
						--grassland-gold: #d4a574;
						--wetland-blue: #6fa8dc;
						--play-bird-purple: #8e7cc3;

						/* Food and Resource Colors */
						--fish-blue: #4a90a4;
						--seed-orange: #d97644;
						--fruit-red: #c44569;
						--invertebrate-green: #6b9d5f;
						--nectar-pink: #e88bb4;

						/* Game Element Colors (Action Cubes) */
						--cube-top: #f4c542;
						--cube-side: #d4a83a;
						--cube-front: #b88f2f;

						/* Utility Icon Colors */
						--util-icon-bkg: #e8e4dc;
						--util-icon-txt: #3d2817;

						/* Typography/Text Colors */
						--w: #ffffff;
						--n: #4a90a4;
						--n2: #3d2817;
						--g: #6b9d5f;
						--s: #d97644;
						--p: #c44569;
						--a: #a89080;
						--1: #e88bb4;
					}
				</style>
				<rect id="habitat-bkg" width="361.7" height="361.7" rx="14" transform="translate(-5.7 250) rotate(-45)"/>
				<circle id="disk" cx="250" cy="250" r="250"/>
				<rect id="die-slash" x="-16.5" y="33" width="29.2" height="636.65" transform="rotate(-45)"/>
				<g id="fish">
					<path d="M5.9,71v2.1A20.5,20.5,0,0,0,7,78c4.5,16.2,21.3,31.4,21.6,42.3C29.1,140.9,3.8,152.5,1,165c0,0-2.8,9.5.9,13.6,2.1,2.2,4.7,2.6,7.5,2.3,48-4.7,104.3-35.5,118.5-28.9s69.2,74.5,166.1,80.9c54.6,3.7,138.1-7.3,171.8-51.9,7.9-9.4,15.1-19.6,22-29.6l9.5-13.5a13.7,13.7,0,0,0-.2-16.5c-5.3-6.5-10.4-13.3-15.5-20-11.2-14.9-22.8-30.3-36.3-43C387.8,4,309.8-13.5,230.7,11.8,195.6,23.1,130.1,79.2,130.1,79.2c-17.4,11.2-83.3-12.7-114-16.8-2.5-.4-4.9-.6-7,1.1A10.2,10.2,0,0,0,5.9,71Z" fill="var(--fish-blue)"/>
					<path d="M393.5,113.1a20.3,20.3,0,1,1,20.2,20.2A20.3,20.3,0,0,1,393.5,113.1Z" fill="white"/>
				</g>
				<path id="rat" d="M486.6,147.7c-21.4-16.6-64.5-11.3-86.9-7C401.6,55.5,261-8.7,174.4,69.3L129,75.9c20.2-41.8-33.5-53.4-46-3.4L19,131.3c-31.1,24.4-20.6,43.5,7.2,43.5,9.4,0,99.7,17.8,112.6,32.3-1.9,3.4-11.5,8.7-9.1,27.3L305.4,240c51.3-15.2,79.1-42.7,89.6-73.1,25.1-6,63.7-9.7,76.5.2,1.9,1.5,3.9,3.7,3.9,8.7,0,14.7-12.1,19.3-41.7,26.9-21.2,5.4-45.3,11.6-60.7,29.1-12.4,14.1-17,27.8-13.8,40.6,4.6,18.5,23.4,26,25.6,26.8a13.1,13.1,0,0,0,4.3.8,12.3,12.3,0,0,0,4.3-23.8c-1.7-.7-9-4.4-10.3-9.8s1.8-10.9,8.3-18.3c10.4-11.9,29.8-16.8,48.4-21.6,26.8-6.9,60.2-15.4,60.2-50.7C500,164.2,495.4,154.5,486.6,147.7Z" fill="var(--taupe)"/>
				<path id="wheat" d="M170.5,173c-25.3-1.7-95.3-11.8-101.8-19.2s-30.1-35-46.1-63.6c10.1-.4,39.9,5,52.9,7.5,22.9,4.3,40.1,12.9,57.8,28.9C154.5,145.7,164.5,158.1,170.5,173Zm-33.9-69.9c-7-30.8,6.5-59.4.5-66.4S100.1,5.4,87,0c-1.1,5.3-6.4,51.7,14.9,84.8C111.8,87.6,129.5,100,136.6,103.1ZM231,191.2l-.3-1.3c-5.9-38.6-.6-69.5-4.4-87.1s-44.4-47.4-66.2-57.9c-3.4,11-8.6,31.1-7.6,50.5,1,21.1,10.5,45.5,23.2,60S219.7,187.8,231,191.2Zm86.7,178.4c7.8.1,34.4,3.3,42.3,5-3.9-12.8-20.5-60.4-38-71.7-25.6-16.5-36.8-12.7-93.5-13.1-37.1-.4-59.4,2.3-92.2-.4,14.5,25.5,44.9,69.1,72.2,81.6S278.8,369.3,317.7,369.6ZM273.3,228.2c9.9,9.6,41.9,49.6,57.3,53.5,0,0,0-74.5-5.2-91.7-13.5-44.9-57.8-75.6-83.3-91.3-.9,24.2-.9,42.3,3.9,73.2C251.8,209.6,255.5,211,273.3,228.2ZM383,375.7c13.2,15.1,37.6,46.4,48.1,51.6C488.2,378,396.9,248.5,359,205.1c-7-8-14.6-15.9-22.6-23.5,0,0,14.9,41.8,15,83.9C344.3,309,369.9,360.6,383,375.7ZM78.1,76c-4.5-11.2-8.2-25.5-6.3-39.9S.3,8,.3,8s33.4,38.7,44,66.9A200.5,200.5,0,0,1,78.1,76ZM288.6,275.6c-11.4-19.6-33.7-47-54.6-64s-53.2-18-86.3-20.4c-21.6-1.5-57.3-8.7-78.8-9,9.1,23.2,35.5,69.2,54.7,80.1s67.4,9.9,109.3,11.6C237.7,274.1,283.9,275.1,288.6,275.6ZM442.5,449.2c-5.2-4.2-10.9-8.3-16.5-12,1.6-1.6,2.6-2.6.1-.7l-.4.4h-.1a1,1,0,0,1,.5-.4c-17.9-8.6-47.3-51.6-91.4-53.6-50.9-2.4-72.6,8.2-113.7,2.2,48.3,50.7,125,85.3,181.6,64.3a95.5,95.5,0,0,1,8,5.7c4.9,3.9,9.2,8.5,13.5,12.9a66.2,66.2,0,0,1,9.2,14.2c2.1,4.6,6.3,14,6.9,17.8l27.5-22.9C462.3,467.9,448.5,453.8,442.5,449.2Z" fill="var(--seed-orange)"/>
				<path id="slug" d="M498.5,305.2c-3.4-5.9-13.8-6.6-19.6-1-14.3-5.8-30-6.5-45-4.8-8.1-39.8-46.4-65.5-76.3-89.5-81.1-79.3-226.6,7.7-252.4-65.5C76.2,101.3,121.8,18.9,61,0-38.9-2.2,1.2,210.6,58.7,251.1c71,62.6,157.7,6.8,224.6,57.6,23.7,16.8,34,49.7,61.7,60.1-8,11-12.8,24.7-14.4,38.3-17.9,6.9-7.4,30.8,9.6,20.3,18.5-14.1-11.6-38.3,18.4-54.6,35.7,8.1,75.1-22.5,76-59.2,12.7-8.2,31.2-6.6,39.9,6.1S506.3,317.6,498.5,305.2Z" fill="var(--invertebrate-green)"/>
				<path id="flower" d="M267.3,291.4c2.1,4.9,4.4,10,6.7,15.3,16,40.2,34.1,91.5,34.3,118.2.4,48-24.9,74.5-56.4,75.1s-57.4-25.1-57.7-73.1c-.2-26.8,17.2-79,32.7-119.8,2.3-5.3,4.4-10.4,6.5-15.2-8,21.8-15.8,46.8-15.7,60.4.2,27.8,15.2,42.6,33.4,42.3s32.8-15.7,32.6-43.4C283.6,337.6,275.5,312.9,267.3,291.4Zm-51-142.6c-.2-27.7,14.4-43.1,32.6-43.4s33.2,14.5,33.4,42.3c.1,13.6-7.7,38.6-15.7,60.4,2.1-4.8,4.2-9.9,6.5-15.2,15.5-40.8,32.9-93,32.7-119.8-.3-48-26.2-73.6-57.7-73.1s-56.8,27.1-56.4,75.1c.2,26.7,18.3,78,34.3,118.2,2.3,5.3,4.6,10.4,6.7,15.3C224.5,187.1,216.4,162.4,216.3,148.8Zm-14,196.6c-19.5,19.8-40.7,20.3-53.8,7.6s-13.2-33.7,6.3-53.5c8.2-8.3,26.4-18.4,44.7-27.3L180.3,280c-36.9,17.1-78.1,38.5-94.9,55.6-33.6,34.2-33.5,70.6-10.8,92.5s59.3,21,93-13.2c18.7-19,42.2-68.1,59.3-107.8l6-15.6C223.5,312.5,211.9,335.7,202.3,345.4Zm95.4-190.8c19.5-19.8,40.7-20.3,53.8-7.6s13.2,33.7-6.3,53.5c-8.2,8.3-26.4,18.4-44.7,27.3l19.2-7.8c36.9-17.1,78.1-38.5,94.9-55.6,33.6-34.2,33.5-70.6,10.8-92.5s-59.3-21-93,13.2c-18.7,19-42.2,68.1-59.3,107.8l-6,15.6C276.5,187.5,288.1,164.3,297.7,154.6Zm47.7,143.1c19.8,19.4,20.3,40.7,7.6,53.8s-33.7,13.2-53.5-6.3c-9.7-9.6-21.8-32.7-31.7-53.8,2,4.8,4.1,10,6.2,15.3,18,39.8,42.5,89,61.6,107.9,34.2,33.6,70.6,33.5,92.5,10.8s21-59.3-13.2-93c-21.2-20.9-79.8-47.7-121.1-64.9L282.1,263C305.2,272.9,334.2,286.7,345.4,297.7ZM154.6,202.3c-19.8-19.4-20.3-40.7-7.6-53.8s33.7-13.2,53.5,6.3c9.7,9.6,21.8,32.7,31.7,53.8-2-4.8-4.1-10-6.2-15.3-18-39.8-42.5-89-61.6-107.9C130.2,51.8,93.8,51.9,71.9,74.6s-21,59.3,13.2,93c21.2,20.9,79.8,47.7,121.1,64.9l11.7,4.5C194.8,227.1,165.8,213.3,154.6,202.3ZM500,245.5c-.9-31.5-27.8-56.5-75.7-55.6-23.9.4-67.1,15.3-104.6,30.1l-19.1,8.7c18.9-7.1,38.6-13.3,50.2-13.5,27.8-.5,43.3,14,43.8,32.2s-14.2,33.3-41.9,33.8c-15.7.3-46.5-9.7-70.3-18.5l11.4,4.8c42.2,15.9,103.8,37,133.7,36.5C475.4,303.1,500.9,277,500,245.5ZM149.2,284.8c-27.8.5-43.3-14-43.8-32.2s14.2-33.3,41.9-33.8c15.7-.3,46.5,9.7,70.4,18.5l-11.5-4.8C164,216.6,102.4,195.5,72.5,196,24.6,196.9-.9,223,0,254.5S27.8,311,75.7,310.1c23.9-.4,67.1-15.3,104.6-30.1l19.1-8.7C180.5,278.4,160.8,284.6,149.2,284.8ZM250,228.1A21.9,21.9,0,1,0,271.9,250,21.9,21.9,0,0,0,250,228.1Z" fill="var(--nectar-pink)"/>
				<path id="berries" d="M373.9,152.5a94.5,94.5,0,0,0-42.4,10.3L320.6,98.7a178.2,178.2,0,0,1,36.5-23.2,285.9,285.9,0,0,1,93.7-26.2h.8a26.1,26.1,0,0,0,6-1.4A24.7,24.7,0,0,0,440.4,1.5c-35.3,13.1-67.2,27.4-98.6,46.1-15.4,9.5-30.6,19.9-44.1,33s-24.5,24.7-36.7,37.8A262.1,262.1,0,0,0,239.6,145h-.4l-48.1-.4c-7.3-45.9-46.7-81.2-94.6-81.2a96.2,96.2,0,1,0,95.7,100.2l31.9,5.9a277,277,0,0,0-19.2,41,649.2,649.2,0,0,0-19.7,66.5c-57.6,4.6-103,52.3-103,111.1A112,112,0,1,0,216.1,278.2a569.3,569.3,0,0,1,16.8-57.7c10.4-31.5,25.2-60.1,47.6-84.4a241.6,241.6,0,0,1,18.2-18.3l13.5,57.7c-20.9,17.7-34.5,43.7-34.5,73.2a96.2,96.2,0,1,0,96.2-96.2Z" fill="var(--fruit-red)"/>
				<path id="reset-symbol" d="M153,173.1h18A107.7,107.7,0,1,1,63.3,280.8a30.8,30.8,0,1,0-61.5,0,169.2,169.2,0,0,0,338.4,0c0-93.5-75.7-169.3-169.2-169.3H153s.7-46.7-6.4-52.5a30.8,30.8,0,0,0-43.5,0L41.6,120.6a30.6,30.6,0,0,0,0,43.5l61.5,61.5a30.8,30.8,0,0,0,43.5,0c6.4-8.1,6.4-52.5,6.4-52.5"/>
				<g id="goal-bkg">
					<rect width="500" height="500" fill="var(--paper)"/>
					<polygon points="0 350 0 500 150 500 0 350" fill="var(--corner-color)"/>
					<polygon points="500 350 500 500 350 500 500 350" fill="var(--corner-color)"/>
					<polygon points="500 150 500 0 350 0 500 150" fill="var(--corner-color)"/>
					<polygon points="0 150 0 0 150 0 0 150" fill="var(--corner-color)"/>
				</g>
				<path id="pt-feather" d="M325.9,269.2a237.2,237.2,0,0,0,3.5-23.9,239.7,239.7,0,0,1-2,24.1,255.3,255.3,0,0,1-13.8,55.4c-12.6,34-32.6,67-59.4,97.9a403.7,403.7,0,0,1-40.8,40.9c-7.3,6.4-14.9,12.5-22.5,18.3-3.9,3-7.9,5.9-11.7,8.5s-8.1,5.6-12.4,8.2a9.6,9.6,0,0,1-13.2-3.2,9.1,9.1,0,0,1-1.5-5,9.8,9.8,0,0,1,4.7-8.3l.5-.2h.1c3.2-1.7,7.1-3.9,11.7-6.7s7.7-4.8,11.7-7.4c7.6-5.1,15.3-10.6,22.6-16.2a404.1,404.1,0,0,0,41.9-37c27.8-28.4,49.2-59.2,63.6-91.6a255.6,255.6,0,0,0,17-53.7m-8,57.2c-12.5,33.7-31.5,64.7-54.4,92.5,19.4,1,39.3-7.9,57.3-24a63.2,63.2,0,0,1-8.5-3.5,34.4,34.4,0,0,1-8.5-5.5,84.4,84.4,0,0,0,19.1,2.6h4.6c17.4-17.7,32.8-42.2,43.9-70.7a72.6,72.6,0,0,1-13,7.4,65.2,65.2,0,0,1-9.7,3.3,42.3,42.3,0,0,1-10,1.4,87.1,87.1,0,0,0,16.2-10.6,109.2,109.2,0,0,0,13.5-12.8,126.6,126.6,0,0,0,12-16.3,261.7,261.7,0,0,0,7.9-89.8,11.4,11.4,0,0,1-1,1.9,74.5,74.5,0,0,1-12.7,16.2,60.6,60.6,0,0,1-7.9,6.5,42.8,42.8,0,0,1-9,4.7,84.7,84.7,0,0,0,11.6-15.5,95.8,95.8,0,0,0,8.2-16.7,120.8,120.8,0,0,0,6.7-25.1,235.3,235.3,0,0,0-15.8-48.8,42.6,42.6,0,0,1-5.4,4.1,42.4,42.4,0,0,1-8.9,4.8,88.7,88.7,0,0,0,11.3-15.1C327.9,42.6,239.4,0,239.4,0c-34.8,21.5-1.9,53.5,21.1,102.7,7.6,16.1,12.2,38.9,13.9,64.4a73.2,73.2,0,0,1,9.9,13,55.6,55.6,0,0,1,7.4,18.4,74.2,74.2,0,0,0-10.6-16.2,66.7,66.7,0,0,0-6.2-6.8c.5,11.8.4,24.1-.3,36.5a96.2,96.2,0,0,1,12.7,22.8,82.6,82.6,0,0,1,4.8,19.6c.6,6.6.6,13.4-1.1,19.8a75.3,75.3,0,0,0-2.7-19.1,93.1,93.1,0,0,0-6.7-17.8,113.4,113.4,0,0,0-7.9-13.5c-3.2,36.4-11.5,72.7-25,99.7-22.4,45.3-12,73.9-4.9,85.9,25-25.8,46.3-55.4,60.9-88.3a249.7,249.7,0,0,0,16.8-52.8,248.1,248.1,0,0,0,4.5-47.1c0-2.8,0-5.6-.1-8.4-1.2-37.4-10.9-74.5-25.8-109.3,17,33.8,29.2,70.5,32.8,108.8q1.2,12.3,1.2,24.6a245.4,245.4,0,0,1-2.2,33.1,261.5,261.5,0,0,1-14,56.4" fill="var(--taupe)"/>
				<path id="pt-3" d="M182.3,101.6q26.7,0,33.2,34.4c.7,6.4,1.3,15.9,1.8,28.4,0,17.2-3,32.2-8.9,45.1q12.4,12.1,12.5,59.2c0,35.5-8,58.2-23.8,68.2A78.5,78.5,0,0,1,158,347.5q-29.5,0-29.6-36.7V293.6c0-9.9,5.1-14.8,15.4-14.8,5.9,0,8.9,3.2,8.9,9.5,0,20.5,1.6,30.8,4.7,30.8q.2,1.2,1.2,1.2h.6c10.4,0,20.3-3.8,29.7-11.3,4.7-5.2,7.1-19.2,7.1-42.1v-8.3c0-16.3-3-28.2-8.9-35.5-11.7,3.5-20.4,5.3-26.1,5.3h-.6c-7.5,0-11.2-3.7-11.2-11.2v-1.8c0-8.1,7.9-13.4,23.7-16,9-3.2,13.6-7.1,13.6-11.9,3.5-6.3,5.3-15.6,5.3-27.8v-13c0-13.9-5.9-20.8-17.8-20.8-14.6,1.9-21.9,5.4-21.9,10.7V139q1.2,16.6,1.2,21.3c0,6.7-3.9,10.1-11.9,10.1h-3.5c-7.1,0-10.7-10.7-10.7-32,0-19.7,13.9-31.4,41.5-35A79,79,0,0,1,182.3,101.6Z" fill="var(--dark-brown)"/>
				<path id="pt-lteq" d="M13,215.5c-2-2.2-3-4.2-3-5.9v-3.5c0-4.1,3.2-7.5,9.5-10.4,37-19.4,59.3-29,67-29,4.2,2.4,6.8,8.1,7.7,16.8l-50.7,24,46.4,21.7a4.8,4.8,0,0,1,1.3,3.4c0,3.3-2.9,7.7-8.9,13.2Q66.6,245.8,13,215.5Zm2.4,42.7c-4.4,2.8-6.5,7.1-6.5,13a24.9,24.9,0,0,0,2.3,11.3q53.3,1.2,72.9,1.2c5.2,0,7.7-3.8,7.7-11.3v-5.3c0-3.7-.8-6.2-2.3-7.7Q76.3,259.4,15.4,258.2Z" fill="var(--dark-brown)"/>
				<path id="pt-gt" d="M19.1,175.4h.6c2.3,0,8,5.1,17.2,15.4q33.3,36,42,49.2c2.8,5,4.2,9.2,4.2,12.4Q79.2,264.6,33.3,320c-8.3,10.3-13.2,16.1-14.8,17.2H17.3c-5,0-10.6-3.6-16.6-10.7v-1.2q0-7.9,30.8-46.2c10.6-12.5,17.1-21.5,19.6-27.3-12.6-17.6-29-38.2-49.2-61.6v-2.4C8.3,179.5,14,175.4,19.1,175.4Z" fill="var(--dark-brown)"/>
				<path id="pt-4" d="M171.7,101.6c5.5,0,8.3,1.2,8.3,3.6q0,8.7-35,120.9h24.3c3.4-31.6,6.3-47.4,8.9-47.4,3.7-5.2,8.3-7.8,13.6-7.8s6.5,3.2,6.5,9.5c0,4.3-1.5,18.7-4.7,43.3,5.9-.4,10.3-.6,13-.6h.6c9.1,0,13.7,2.6,13.7,7.7v1.8c0,10.2-5.6,15.4-16.6,15.4H193a421.8,421.8,0,0,0-2.4,46.2v3.6q0,15.3,1.8,45.6c-2.6,2.7-6.9,4.1-13,4.1-9.5,0-14.2-17.5-14.2-52.7,0-8.6.7-23.8,2.3-45.6-8.4.8-13.9,1.2-16.6,1.2-22.5,0-33.7-1.2-33.7-3.6-2.1,0-3.5-1.8-4.2-5.3s4.2-15,12.4-36.2c14.3-40.7,24.5-72.9,30.9-96.6C159.3,104,164.5,101.6,171.7,101.6Z" fill="var(--dark-brown)"/>
				<path id="automa-key-grid" d="M0,.3V85.7H500V.3H0ZM82.8,83.2H2.5V2.8H82.8V83.2Zm2.5,0V2.8h80.3V83.2H85.3Zm163.2,0h-80.3V2.8h80.3V83.2Zm83,0h-80.3V2.8h80.3V83.2Zm83,0h-80.3V2.8h80.3V83.2Zm83,0h-80.3V2.8h80.3V83.2Z"/>
				<path id="red-x" d="M298.8,250L489.9,58.9c13.5-13.5,13.5-35.3,0-48.8-13.5-13.5-35.3-13.5-48.8,0L250,201.2,58.9,10.1C45.4-3.4,23.6-3.4,10.1,10.1c-13.5,13.5-13.5,35.3,0,48.8L201.2,250,10.1,441.1c-13.5,13.5-13.5,35.3,0,48.8,6.7,6.7,15.6,10.1,24.4,10.1s17.6-3.4,24.4-10.1l191.1-191.1,191.1,191.1c6.7,6.7,15.6,10.1,24.4,10.1s17.6-3.4,24.4-10.1c13.5-13.5,13.5-35.3,0-48.8l-191.1-191.1Z" fill="#d2232a"/>
			</defs>
			<symbol id="site-title" viewBox="0 0 500 82">
				<polygon points="22.9 80.5 10.8 80.5 0 1.5 8.6 1.5 17.8 68.8 26.6 1.6 35.3 1.6 44 68.9 52.9 1.5 60.6 1.5 49.9 80.5 38.3 80.5 30.7 26.9 22.9 80.5" fill="var(--w)"/>
				<rect x="90.2" y="1.5" width="8.8" height="79" fill="var(--1)"/>
				<polygon points="138.4 80.5 130.5 80.5 130.5 1.5 141.6 1.5 159.9 58.6 159.9 1.5 167.7 1.5 167.7 80.5 158.6 80.5 138.4 16.6 138.4 80.5" fill="var(--n)"/>
				<path d="M234.1,20.6v6.7h-8.4V20.1c0-7.1-2.8-11.4-9.2-11.4s-9.3,4.3-9.3,11.4V61.9c0,7.1,3,11.4,9.3,11.4s9.2-4.3,9.2-11.4V46.1h-8.1V38.2h16.5V61.4c0,12-5.7,19.9-17.8,19.9s-17.8-7.9-17.8-19.9V20.6c0-12,5.7-19.9,17.8-19.9S234.1,8.6,234.1,20.6Z" fill="var(--g)"/>
				<path d="M299.1,20.5v2.1h-8.4V20c0-7.1-2.7-11.3-9-11.3s-9,4.2-9,11.2c0,17.7,26.5,19.4,26.5,41.6,0,12-5.7,19.8-17.8,19.8s-17.7-7.8-17.7-19.8V57h8.2v5c0,7.1,2.9,11.3,9.3,11.3s9.2-4.2,9.2-11.3c0-17.6-26.4-19.3-26.4-41.5C264,8.3,269.6.7,281.5.7S299.1,8.5,299.1,20.5Z" fill="var(--s)"/>
				<path d="M346.7,1.5c12.4,0,17.7,7.3,17.7,19.3v9.5c0,12.5-5.8,19.1-18.4,19.1h-7.7V80.5h-8.8V1.5Zm-.7,40c6.6,0,9.8-3.1,9.8-10.7V20.3c0-7.2-2.6-10.8-9.1-10.8h-8.4v32Z" fill="var(--p)"/>
				<path d="M401.7,64.6l-3.1,15.9h-8.1l15.1-79h12.8l15.1,79h-8.8l-3-15.9Zm1.1-7.6h17.6l-8.9-45.6Z" fill="var(--a)"/>
				<polygon data-name="n" points="470.7 80.5 462.8 80.5 462.8 1.5 473.9 1.5 492.2 58.6 492.2 1.5 500 1.5 500 80.5 490.9 80.5 470.7 16.6 470.7 80.5" fill="var(--n2)"/>
			</symbol>
			<symbol id="automa-food-key" viewBox="0 0 500 86">
				<use href="#automa-key-grid"/>
				<use href="#rat" transform="translate(8 23) scale(.14)"/>
				<use href="#fish" transform="translate(90 26) scale(.14)"/>
				<use href="#berries" transform="translate(175 8) scale(.14)"/>
				<use href="#wheat" transform="translate(287 10) scale(.08)"/>
				<use href="#die-slash" transform="translate(257 10) scale(.14)"/>
				<use href="#slug" transform="translate(256 40) scale(.09)"/>
				<use href="#slug" transform="translate(342 14) scale(.14)"/>
				<use href="#wheat" transform="translate(430 14) scale(.12)"/>
			</symbol>
			<symbol id="automa-oe-food-key" viewBox="0 0 500 86">
				<use href="#automa-key-grid"/>
				<use href="#rat" transform="translate(8 23) scale(.14)"/>
				<use href="#fish" transform="translate(90 26) scale(.14)"/>
				<use href="#flower" transform="translate(170 42) scale(.07)"/>
				<use href="#die-slash" transform="translate(173 10) scale(.14)"/>
				<use href="#berries" transform="translate(205 8) scale(.07)"/>
				<use href="#wheat" transform="translate(287 10) scale(.08)"/>
				<use href="#die-slash" transform="translate(257 10) scale(.14)"/>
				<use href="#slug" transform="translate(256 40) scale(.09)"/>
				<use href="#slug" transform="translate(342 14) scale(.14)"/>
				<use href="#flower" transform="translate(422 42) scale(.07)"/>
				<use href="#die-slash" transform="translate(423 10) scale(.14)"/>
				<use href="#wheat" transform="translate(453 10) scale(.08)"/>
			</symbol>
			<symbol id="icon-settings" viewBox="0 0 500 500">
				<path fill="var(--util-icon-bkg)" fill-rule="evenodd" d="M404.2,50.5l23.7,23.7,23.7,23.6c-55.2,53.7-30,119.9,48.9,119.9V284c-77.3,0-105.7,64.6-50.5,119.8l-23.7,23.7-23.6,23.6c-55.2-55.2-119.9-29.9-119.9,48.9H215c1.5-77.2-63.1-105.6-118.3-50.4L73,425.9,49.4,402.2C103,347,79.3,282.4.5,282.4V214.5c77.2,1.6,105.6-63,50.4-118.2L74.6,72.6,98.3,48.9c53.6,53.7,119.8,30,119.8-48.9h66.3C284.4,77.3,349,105.7,404.2,50.5ZM249.7,135.7c63.1,0,115.1,50.5,115.1,113.5s-52,115.2-115.1,115.2S136.1,312.3,136.1,249.2A113.1,113.1,0,0,1,249.7,135.7Z"/>
			</symbol>
			<symbol id="icon-find" viewBox="0 0 500 500">
				<circle fill="var(--util-icon-bkg)" cx="250" cy="250" r="250"/>
				<path fill="var(--util-icon-txt)" d="M158,217c0,20,4.7,39.7,14,57.5,1,2.1,2.2,4.1,3.5,5.9l-57.9,57.9h0c-6,5.8-9.4,13.8-9.5,22.2,0,8.4,3.2,16.4,9.2,22.3,5.9,5.9,14,9.2,22.3,9.2,8.4,0,16.4-3.5,22.2-9.5l57.9-57.9h0c1.9,1.3,3.9,2.5,5.9,3.5,26.5,13.7,57,17.5,86.1,10.6,29-6.8,54.7-23.8,72.3-47.9,17.6-24.1,26-53.7,23.7-83.4-2.3-29.7-15.1-57.7-36.2-78.8-17.5-17.5-39.8-29.4-64-34.2-24.3-4.8-49.4-2.3-72.2,7.1-22.8,9.5-42.4,25.5-56.1,46-13.7,20.6-21.1,44.7-21.1,69.5h0Zm181.2-56.2c17.6,17.5,26,42.2,22.8,66.7-3.2,24.6-17.6,46.3-39.1,58.7-21.4,12.4-47.5,14.2-70.4,4.7-22.9-9.5-40.1-29-46.6-53-6.4-23.9-1.4-49.5,13.7-69.2,15.1-19.7,38.5-31.2,63.3-31.2,21.1,0,41.3,8.3,56.2,23.2h0Z"/>
			</symbol>
			<symbol id="icon-share-sheet" viewBox="0 0 392 500">
				<path d="M119.1,98.7a21.7,21.7,0,0,1-.1-30.6L180.7,6.3A21.4,21.4,0,0,1,195.9,0h.2a21.3,21.3,0,0,1,15.1,6.2L273,68.1a21.7,21.7,0,0,1-30.8,30.7L217.7,74.3V282.6a21.7,21.7,0,0,1-43.4,0V74.3L149.7,98.8A21.6,21.6,0,0,1,119.1,98.7Zm229.2,53.5H283v43.5h65.2V456.5H43.8V195.7H109V152.2H43.7A43.4,43.4,0,0,0,.3,195.5V456.7A43.4,43.4,0,0,0,43.7,500H348.3a43.4,43.4,0,0,0,43.4-43.3V195.5A43.4,43.4,0,0,0,348.3,152.2Z"/>
			</symbol>
			<symbol id="pwa-logo" viewBox="0 0 500 190">
				<path d="M323.4,189.1,399.3.9H349L297,122.5,260.1.9H221.4L181.8,122.5l-28-55.4L128.5,145l25.7,44.1h49.5L239.6,80l34.1,109.1Z" fill="#5a0fc8"/>
				<path d="M500,189.1H447.7l-12.1-33.7H368l14.4-36.5h41.7L404.3,63.5,429.1.9ZM128.4,20a53.4,53.4,0,0,1,5.9,7.6L111.9,96.7l-8.1,24.7a91,91,0,0,1-25,3.1h-31v64.6H0V.9H77.9C100.1.9,116.9,7.2,128.4,20ZM95.5,62.3c0-7.5-2.2-13.6-6.7-18.1s-12.2-6.8-23-6.8h-18V88H65.7c11.6,0,19.6-2.5,23.9-7.5S95.5,70,95.5,62.3Z"/>
			</symbol>
			<symbol id="click-to-share" viewBox="0 0 500 315">
				<path d="M88.2,1.4c5.9,24.3,16.7,67.7,22.6,91.9L84.7,79.7c-36.3,62.5-17.4,138.2,39.6,180.9C39.2,226,6.4,136.6,29.4,51L0,35.8Zm3,173.2c-4.8-30.1,12.3-55,37.2-58.9,9.9-1.6,19,2,25.3,10.1l-12.2,13.1c-3.9-4.2-7.4-5.8-11.2-5.1-12.3,1.9-20.9,17.9-18,36.1,1.9,12.2,7.7,18.5,19.2,16.7,4.4-.7,8.6-4.1,12-8.1l10.7,11.9c-4,5.2-12.4,12.9-24.3,14.8C110.1,208.3,94.8,197.4,91.2,174.6Zm75.1,10.1a40.2,40.2,0,0,1-.4-8.9l2.9-71.1,20.7-3.3-2.9,71.9a9.1,9.1,0,0,0,.1,2.5c.4,2.4,1.8,3,3.1,2.8a7.8,7.8,0,0,0,2.3-.6l1.7,15.4a34.3,34.3,0,0,1-10.4,3.3C172.7,198.4,167.7,193.6,166.3,184.7Zm38.5-59.6,20.7-3.3-2.6,67-20.8,3.3Zm0-18.4c-1-6.2,3.6-12.5,10.6-13.6,5.4-.9,11.4,1.6,12.4,7.8s-3.6,12.6-10.6,13.7C211.7,115.5,205.8,113.2,204.8,106.7Zm31.4,53.9c-3.5-21.8,10.1-43.7,32.5-47.2a22.7,22.7,0,0,1,18.9,5.2l-9.5,14c-2.7-1.9-5-2.9-8.1-2.4-9.4,1.5-14.6,13.5-12.5,26.7,1,6.5,4.8,10.2,11,9.2,3.9-.6,6.2-2.8,8.3-5l10.6,11.3c-4.4,4.4-10.5,9.4-20.9,11.1C251.9,185.8,238.9,177.7,236.2,160.6Zm63.4-76.7,20.8-3.3L318.3,131h.5l17.6-26.7,22.9-3.6-22.2,33,21.1,33.7-20.8,3.3-12.7-22.7-7.4,10.2-.7,15.8-20.8,3.3Zm96.9,60.3a64.2,64.2,0,0,1-.3-8.8l1.2-24.4-8.3,1.3.7-15.8,9.2-2.3,3.1-17.5,17.4-2.8L419,91.1l14-2.3-.5,16.6-14.6,2.3-1,25.2a26.1,26.1,0,0,0,.4,4.2c.6,3.9,3,5.4,7.1,4.8a12.3,12.3,0,0,0,4.5-2.1l5.9,14a46,46,0,0,1-15.9,5.4C405.2,161.4,398.2,154.8,396.5,144.2Zm42.3-15.8c-4-25.2,12.4-44.1,30.3-46.9,15.6-2.5,27.7,6.8,30.3,22.9,4,25.2-12.4,44-30.4,46.9C453.5,153.8,441.3,144.5,438.8,128.4ZM478.4,108c-1-6.5-4-10.3-9-9.5-7.5,1.2-11.9,12.3-9.6,26.3,1,6.5,4,10.3,8.9,9.5C476.3,133.1,480.6,122,478.4,108ZM150.3,301.8l12.9-14.1c5.4,5.4,12.8,8.5,19.3,7.5s9.5-4.3,8.7-9-4.6-4.8-11-7.5l-8-3.4c-8.6-3.7-14.2-9.1-15.9-19.6-2.4-15.2,9.5-29.5,26.7-32.2,9.9-1.6,20.1,1.9,28.3,8.9l-11,14.3c-5-3.6-9.8-6-15.2-5.2s-8.5,4.7-7.9,8.7,4.5,4.5,11.9,7.7l8.6,3.6c8.9,3.6,13,8.4,14.6,18.3,2.5,15.5-8.3,30.1-28.5,33.3C173,314.8,161,312.2,150.3,301.8ZM227.1,212l20.8-3.3-1.1,21.7-1.3,11.9h.5c4.5-5.5,10.6-10.4,18.4-11.7,10.6-1.7,16.2,3.3,18,14.5a41.9,41.9,0,0,1,.4,9.5L281.2,296l-20.8,3.3,1.5-38.8a31.3,31.3,0,0,0,.2-5.9c-.6-3.6-3-5.1-6.3-4.6s-6.4,3.4-10.3,9.1L244,301.9l-20.7,3.3Zm67.4,59c-3.9-24.7,9.6-46.8,27.5-49.6,5.5-.9,11.7,1.3,14.8,5.9h.3l1.8-6.9,16.6-2.7-2.6,67L336,287.3l-1.3-8h-.3c-4.7,6.9-11.7,11.7-17.9,12.7C305.1,293.8,296.9,286.3,294.5,271Zm38.7-7.7.9-21.5a8.3,8.3,0,0,0-7.8-3.8c-7.6,1.2-13,12.4-10.7,27,1.1,6.7,3.9,9.2,7.5,8.6S330.9,270.8,333.2,263.3Zm37.1-48,16.9-2.7,1.5,12.8h.5c3.6-9.1,10.2-16.2,17.5-17.4,3.6-.6,5.8-.4,7.2.2l-3.9,19c-2-.8-4.8-.3-6.9,0-5.5.9-9.6,5-13.2,14.4l-1.2,37.4-20.8,3.3Zm76.6-13.8c15.9-2.5,23.4,7.7,25.5,21.3a42.2,42.2,0,0,1-1.1,16.1l-35.1,5.6c1.6,8.5,7.9,11.2,15.4,10,3.7-.5,7.8-3.3,10.3-5.8l9.3,11.8c-4.6,4.4-12.4,8.9-23.1,10.6-15.8,2.5-28.7-6.4-31.4-23.8C412.9,223.4,429.5,204.3,446.9,201.5Zm8.6,27.1a20.4,20.4,0,0,0-.1-4.2c-.7-4.4-3.1-7.5-8.5-6.6s-9.6,5.2-11.1,14Z"/>
			</symbol>
			<!-- Wingspan -->
			<symbol id="action-cube" viewBox="0 0 500 472">
				<polygon points="362.9 0.9 12.9 20.5 0 386.7 137.1 471.1 487.1 451.5 500 85.3 362.9 0.9" fill="var(--cube-top)"/>
				<polygon points="487.1 451.5 137.1 471.1 150 105 500 85.3 487.1 451.5" fill="var(--cube-front)"/>
				<polygon points="150 105 12.9 20.5 362.9 0.9 500 85.3 150 105" fill="var(--cube-side)"/>
			</symbol>
			<symbol id="action-cube-direct" viewBox="0 0 500 478">
				<polygon points="443.3 0.9 3.3 1.8 0 444.5 56.7 477.1 496.7 476.2 500 33.5 443.3 0.9" fill="var(--cube-top)"/>
				<polygon points="496.7 476.2 56.7 477.1 59.9 34.4 500 33.5 496.7 476.2" fill="var(--cube-front)"/>
				<polygon points="59.9 34.4 3.3 1.8 443.3 0.9 500 33.5 59.9 34.4" fill="var(--cube-side)"/>
			</symbol>
			<symbol id="remove-cube" viewBox="0 0 500 500">
				<use href="#action-cube" transform="translate(20 20) scale(.9)"/>
				<use href="#red-x"/>
			</symbol>
			<symbol id="i-beak-lt" viewBox="0 0 500 500">
				<path d="M185.7,196.6c16.1-7.3,42.5-22.4,51.6-41-30.3-6.9-126.1-24.1-195.1,6.7,25.4-.7,80.7.2,123.7,20.1a57,57,0,0,1,19.8,14.2M181.8,80.3c-37.5,7.5-114.5,30-144.1,65.3C100.5,108,198.8,124,237.8,132.5c-9.1-20.7-40.1-42.8-56-52.2M156.5,202.8C66.5,161.3.6,189.2.2,189.3l2.9-14.8C24.2,91,147.4,64.1,177.7,58,189.3,45.3,235,6.6,307.9.7c122.4-10,183.1,93.6,184.5,165,5.6,13.4,7.4,98.5,7.4,162.4,0,45.4-5,98.1-8.3,133-1.6,17.2-2.9,33.5-2.9,38.9H466.1c0-6.5,1.3-22.5,3-41.1,3.3-34.4,8.2-86.5,8.2-130.8,0-64.5-6.1-154.9-6.5-155.5l-.9-2.1v-2.3c0-60.9-63.4-152.3-162-144.7-52.9,4-90,27.8-106.2,42.7,22.5,14.6,65.6,47.3,60.9,82.8s-48.6,59.5-67.5,68.1c5,34.3,7.3,77.6-36.2,127.7s-67,101-67,146.1H69.4c0-53.5,23.8-104.9,72.4-161,37.2-42.7,35.9-87.1,30.8-110.8-.4-2.5-2-9.8-16.1-16.3" fill="var(--dark-brown)"/>
			</symbol>
			<symbol id="i-beak-rt" viewBox="0 0 500 500">
				<path d="M314.3,196.6a58.2,58.2,0,0,1,19.8-14.2c43-19.9,98.3-20.8,123.7-20.1-69-30.8-164.8-13.6-195.1-6.7,9.1,18.6,35.5,33.7,51.6,41m3.9-116.3c-15.9,9.4-46.9,31.5-56,52.2,39-8.5,137.3-24.5,200.1,13.1-29.6-35.3-106.6-57.8-144.1-65.3m25.3,122.5c-14.1,6.5-15.7,13.8-16.1,16.3-5.1,23.7-6.4,68.1,30.8,110.8,48.6,56.1,72.4,107.5,72.4,161H408.1c0-45.1-23.5-96-67-146.1s-41.2-93.4-36.2-127.7c-18.9-8.6-62.8-32.6-67.5-68.1s38.4-68.2,60.9-82.8C282.1,51.3,245,27.5,192.1,23.5c-98.6-7.6-162,83.8-162,144.7v2.3l-.9,2.1c-.4.6-6.5,91-6.5,155.5,0,44.3,4.9,96.4,8.2,130.8,1.7,18.6,3,34.6,3,41.1H11.4c0-5.4-1.3-21.7-2.9-38.9C5.2,426.2.2,373.5.2,328.1c0-63.9,1.8-149,7.4-162.4C9,94.3,69.7-9.3,192.1.7,265,6.6,310.7,45.3,322.3,58c30.3,6.1,153.5,33,174.6,116.5l2.9,14.8c-.4-.1-66.3-28-156.3,13.5" fill="var(--dark-brown)"/>
			</symbol>
			<symbol id="i-bird" viewBox="0 0 344 500">
				<path d="M302.2,500H41.9C9.5,500,1,473.2,1,459.1V40.9C1,8.6,27.7,0,41.9,0H302.2C334.5,0,343,26.8,343,40.9V459.1C343,491.5,316.3,500,302.2,500Z" fill="var(--taupe)"/>
				<path d="M41.9,12.3c-3.1,0-28.7,1.1-28.7,28.6V459.1c0,2.9,1,28.6,28.7,28.6H302.2c2.9,0,28.6-1,28.6-28.6V40.9c0-2.9-1-28.6-28.6-28.6Z" fill="var(--paper)"/>
				<path d="M195.7,399.1c-44.5,0-54.6-26.3-62-45.5-1.2-3.1-2.3-6.2-3.5-8.9-35.2-1.1-45-16-53.8-29.2S61,292.2,30,292.2a7.1,7.1,0,0,1-6-3.1,5.8,5.8,0,0,1,.1-6.3c13.5-20.4,25.2-29.5,37.8-29.5,9,0,16.2,4.8,22.5,9.1s10.4,6.9,15.3,6.9c20.4,0,56.4-32.6,88.1-61.3,35.6-32.2,59.9-56.5,86.7-92.8a7.2,7.2,0,0,1,11.8.6c20.1,36.3,24.2,97-6.6,143.1C264.2,282.1,234,309.8,177.2,313c5.7,17.3,36.4,19.4,50.4,19.4,20.8,0,38.9,12.8,40.3,28.5.6,6.6-1.3,28.9-50.8,36.4a139.3,139.3,0,0,1-21.4,1.8M54.6,241.7a35.5,35.5,0,0,1,7.3-.8c13.5,0,23.4,6.7,30.7,11.5,2.5,1.7,6.3,4.2,7.7,4.5,13.1,0,48.1-30.9,72.2-52.6,4.4-30.9-2.6-62.6-13.2-82.4-7.2-13.7-15.8-20.9-24.7-20.9a7,7,0,0,0-4.8,1.8c-5.1,4.5-7.8,11.9-11.6,22.2-6.6,18.1-16.7,45.4-46.6,72.4C53.4,213.9,52.1,230,54.3,240.6l.3,1.1" fill="var(--dark-brown)"/>
			</symbol>
			<symbol id="i-bird-card" viewBox="0 0 344 500">
				<image width="334" height="490" transform="translate(5 5)" href="/static/images/components/bird-card-back.webp"/>
				<path d="M302.2,500H41.9C9.5,500,1,473.2,1,459.1V40.9C1,8.6,27.7,0,41.9,0H302.2C334.5,0,343,26.8,343,40.9V459.1C343,491.5,316.3,500,302.2,500ZM41.9,12.3c-3.1,0-28.7,1.1-28.7,28.6V459.1c0,2.9,1,28.6,28.7,28.6H302.2c2.9,0,28.6-1,28.6-28.6V40.9c0-2.9-1-28.6-28.6-28.6Z" fill="white"/>
			</symbol>
			<symbol id="i-bonus-card" viewBox="0 0 344 500">
				<image width="334" height="490" transform="translate(5 5)" href="/static/images/components/bonus-card-back.webp"/>
				<path d="M302.2,500H41.9C9.5,500,1,473.2,1,459.1V40.9C1,8.6,27.7,0,41.9,0H302.2C334.5,0,343,26.8,343,40.9V459.1C343,491.5,316.3,500,302.2,500ZM41.9,12.3c-3.1,0-28.7,1.1-28.7,28.6V459.1c0,2.9,1,28.6,28.7,28.6H302.2c2.9,0,28.6-1,28.6-28.6V40.9c0-2.9-1-28.6-28.6-28.6Z" fill="white"/>
			</symbol>
			<symbol id="i-bonus-cards" viewBox="0 0 394 500">
				<image width="249" height="380" transform="translate(136 115)" href="/static/images/components/bonus-card-back.webp"/>
				<image width="249" height="380" transform="translate(10 8)" href="/static/images/components/bonus-card-back.webp"/>
				<path d="M361.5,110.2H267.3V31.9c0-11.1-6.6-31.9-31.9-31.9H32.5C21.5,0,.6,6.7.6,31.9v326c0,11,6.7,31.9,31.9,31.9h94.2v78.3c0,11.1,6.6,31.9,31.8,31.9h203c11,0,31.9-6.7,31.9-31.9v-326C393.4,131.1,386.7,110.2,361.5,110.2ZM32.5,380.3c-21.5,0-22.3-20.1-22.3-22.4V31.9c0-21.6,20.1-22.3,22.3-22.4H235.4c21.6,0,22.3,20.1,22.4,22.4v326c0,21.6-20.1,22.3-22.4,22.4Zm351.3,87.8c0,21.6-20.1,22.3-22.3,22.4h-203c-21.5,0-22.3-20.1-22.3-22.4V389.8h99.2c11.1,0,31.9-6.7,31.9-31.9V119.7h94.2c21.5,0,22.3,20.1,22.3,22.4Z" fill="white"/>
			</symbol>
			<symbol id="i-convert" viewBox="0 0 358 500">
				<polygon points="179 429.4 178.6 370.8 0.8 370.8 0.8 355.3 194 355.3 194.2 392.2 335.3 251.1 192.5 108.3 192.7 145 0.8 145 0.8 129.5 177.1 129.5 176.8 70.6 357.2 251.1 179 429.4"/>
			</symbol>
			<symbol id="i-egg" viewBox="0 0 364 500">
				<title>Egg</title>
				<path d="M172.2,486.1c-92.4-4.2-163-64.7-157.5-178.7C22.1,156.5,103,9.5,195.3,13.7S356.4,171.9,349,322.9c-5.3,110.2-84.5,167.5-176.8,163.2" fill="white"/>
				<path d="M182.4,500l-10.9-.3h0c-52.6-2.4-96.5-21.4-127.1-55s-46-81.9-43.3-138C8.4,157.8,88.7-4.5,195.9.1c30.2,1.4,59.7,16.9,85.2,45,54,59.4,86.8,171.3,81.6,278.4S285.5,500,182.4,500Zm9-472.7c-78.5,0-155.8,132.2-163,280.7C26,356.7,38.5,397.6,64.6,426.3s63,44.1,108.2,46.2h0c77.1,3.3,157.3-41.6,162.6-150.3,4.9-100.3-25.1-204.3-74.6-258.8-20.8-22.8-43-35-66.2-36Z" fill="var(--taupe)"/>
			</symbol>
			<symbol id="i-egg-limit" viewBox="0 0 218 500">
				<path d="M12,486.5c-8.2-9-12.1-22-11.4-37.8,1.6-33.2,14.4-67.2,31.3-82.5,5.9-5.4,11.8-8.1,17.5-8.1h.9c23.3,1.1,44.1,48.2,41.9,95-.8,15.2-6.1,27.7-15.3,36s-20.3,11.5-33.3,10.8S19.6,494.7,12,486.5ZM.6,90.6c-1.4,30.7,14.6,49.9,43,51.3,12.9.6,24.7-3.3,33.3-10.9s14.5-20.7,15.3-36C94.4,48.2,73.6,1.2,50.3,0h-.8C39,0,27.8,9.3,18.4,25.6S1.7,67.2.6,90.6Zm125.2,0c-1.5,30.7,14.6,49.9,43,51.3,12.7.7,24.7-3.3,33.2-10.9s14.6-20.7,15.3-36c2.2-46.8-18.5-93.8-41.8-95-10.6-.7-22.3,8.8-31.9,25.6S126.9,67.2,125.8,90.6Zm43,230.3c13,.6,24.7-3.2,33.2-10.9s14.6-20.7,15.3-35.9c2.2-46.8-18.5-93.9-41.8-95h-.9c-10.4,0-21.7,9.2-31,25.5-10.2,17.9-16.7,41.6-17.8,65.1-.8,15.8,3.2,28.8,11.4,37.7S155.6,320.3,168.8,320.9Zm-125.2,0c13,.6,24.7-3.2,33.3-10.9s14.5-20.7,15.3-35.9c2.2-46.8-18.6-93.9-41.9-95h-.8c-10.5,0-21.7,9.2-31.1,25.5C8.2,222.5,1.7,246.2.6,269.7c-.7,15.8,3.2,28.8,11.4,37.7S30.5,320.3,43.6,320.9Z" fill="var(--taupe)"/>
			</symbol>
			<symbol id="i-fish" viewBox="0 0 500 234">
				<use href="#fish"/>
			</symbol>
			<symbol id="i-flocking" viewBox="0 0 394 500">
				<image width="249" height="380" transform="translate(136 115)" href="/static/images/components/bird-card-back.webp"/>
				<path d="M32.5,4.8S5.4,4.8,5.4,31.9v326S5.4,385,32.5,385H235.4s27.1,0,27.1-27.1V31.9s0-27.1-27.1-27.1Z" fill="var(--paper)"/>
				<path d="M361.5,110.2H267.3V31.9c0-11.1-6.6-31.9-31.9-31.9H32.5C21.5,0,.6,6.7.6,31.9v326c0,11,6.7,31.9,31.9,31.9h94.2v78.3c0,11.1,6.6,31.9,31.8,31.9h203c11,0,31.9-6.7,31.9-31.9v-326C393.4,131.1,386.7,110.2,361.5,110.2ZM32.5,380.3c-21.5,0-22.3-20.1-22.3-22.4V31.9c0-21.6,20.1-22.3,22.3-22.4H235.4c21.6,0,22.3,20.1,22.4,22.4v326c0,21.6-20.1,22.3-22.4,22.4Zm351.3,87.8c0,21.6-20.1,22.3-22.3,22.4h-203c-21.5,0-22.3-20.1-22.3-22.4V389.8h99.2c11.1,0,31.9-6.7,31.9-31.9V119.7h94.2c21.5,0,22.3,20.1,22.3,22.4Z" fill="white"/>
				<path d="M152.5,324.3c-34.7,0-42.6-20.5-48.3-35.4l-2.8-7c-27.4-.8-35.1-12.4-41.9-22.8S47.4,241,23.3,241a5.5,5.5,0,0,1-4.7-2.4,4.6,4.6,0,0,1,.1-4.9c10.5-15.9,19.6-23,29.4-23,7,0,12.7,3.8,17.6,7s8.1,5.4,11.9,5.4c16,0,44-25.4,68.7-47.8,27.7-25,46.7-44,67.6-72.3a5.7,5.7,0,0,1,4.8-2.2,5.5,5.5,0,0,1,4.4,2.7C238.7,131.7,242,179.1,218,215c-12.1,18.1-35.7,39.7-79.9,42.2,4.4,13.5,28.3,15.1,39.2,15.1,16.2,0,30.3,10,31.5,22.2.4,5.2-1,22.6-39.7,28.4a99.6,99.6,0,0,1-16.6,1.4M42.5,201.6a34.3,34.3,0,0,1,5.7-.6c10.5,0,18.2,5.2,23.9,9a34.4,34.4,0,0,0,6,3.5c10.2-.1,37.5-24.1,56.2-41,3.5-24.1-2-48.8-10.2-64.3-5.6-10.7-12.3-16.3-19.2-16.3a5.6,5.6,0,0,0-3.8,1.4c-4,3.6-6.1,9.4-9,17.4-5.2,14.1-13.1,35.4-36.3,56.4C41.5,180,40.5,192.6,42.2,200.8l.3.8" fill="var(--dark-brown)"/>
			</symbol>
			<symbol id="i-forest" viewBox="0 0 500 500">
				<title>Forest — Gain Food</title>
				<use href="#habitat-bkg" fill="var(--forest-green)"/>
				<path d="M241.2,375.9c1.6,2.7,1.5,4.2,1.5,4.2H188a6.7,6.7,0,0,1,0-3.5c.9-4,4.9-11.8,6.3-19.2,2.6-14.4,3.1-85.9,3.1-85.9,6-1.6,7.8-2.7,11.8-5.7,5.1,6.5,12,9.1,24,12,0,0-1.2,68.4,0,80C234,364.8,238.7,371.7,241.2,375.9ZM235.4,271a49,49,0,0,1,10.8-59.9,38.1,38.1,0,0,1-.7-7.5,39.3,39.3,0,0,1,39.2-39.2,38.4,38.4,0,0,1,21.8,6.7,36,36,0,0,1,8.3-5.7A47.6,47.6,0,0,0,288.9,147,41,41,0,0,0,217,125a42,42,0,0,0-68,43.3,54.3,54.3,0,0,0,60.2,90.2A46.4,46.4,0,0,0,235.4,271Zm129.5-75.1a30.2,30.2,0,0,0-3.5-11.6,36.1,36.1,0,0,0-5.1-7.2,32.4,32.4,0,0,0-15-9.2,30.4,30.4,0,0,0-6-1.2h-3.2a33.5,33.5,0,0,0-14.5,3.3,34.6,34.6,0,0,0-10.6,8.3,33.6,33.6,0,0,0-22.3-8.5,33.8,33.8,0,0,0-33.1,41.1l.6,2.3-.6-2.3.6,2.3a45.7,45.7,0,0,0-7.1,6.8,38.1,38.1,0,0,1,3.3-3.6,45.4,45.4,0,0,0-8.8,11.9,43.4,43.4,0,0,0,2.3,43.3,43.7,43.7,0,0,0,58.8,14.3,39.3,39.3,0,0,0,5.5,4.4,38.4,38.4,0,0,0,17,5.9l3.7.2a44.6,44.6,0,0,0,6.3-.5,38.7,38.7,0,0,0,30.1-26,38.2,38.2,0,0,0,1.6-73.9ZM320.1,365.8c-1-9.3,0-64.4,0-64.4-9.7-2.4-15.3-4.5-19.4-9.7a22.2,22.2,0,0,1-9.5,4.6s-.4,57.6-2.5,69.2c-1.1,6-4.3,12.3-5.1,15.5a5.3,5.3,0,0,0,0,2.8h44.1a6.6,6.6,0,0,0-1.2-3.4C324.5,377.1,320.7,371.5,320.1,365.8Z" style="fill: #fff"/>
			</symbol>
			<symbol id="i-fruit" viewBox="0 0 474 500">
				<use href="#berries"/>
			</symbol>
			<symbol id="i-grassland" viewBox="0 0 500 500">
				<use href="#habitat-bkg" fill="var(--grassland-gold)"/>
				<path d="M283.3,275.8c10.6,48.1,14.7,97.7,14.5,147.2l-11.4,11.3-35.9,36-.9-.8-20.7-20.8c.1-1.1.3-2.2.5-3.3,12.2-53.9,19.2-109.2,17.4-164.9s-13-111.6-36.2-164A2.6,2.6,0,0,1,212,113a2.6,2.6,0,0,1,3.3.9C248,161.8,270.6,217.6,283.3,275.8Zm63.3-88.4a2.8,2.8,0,0,0-1.2-3.2,2.9,2.9,0,0,0-3.7,1,445.7,445.7,0,0,0-44.5,111.7c-.4,1.6-.7,3.2-1.1,4.8a703.8,703.8,0,0,1,9.4,113.6l22.8-22.8a388.9,388.9,0,0,1-5.1-91.6C325.5,262.8,333.6,224.5,346.6,187.4ZM209.6,305c-10.3-18.7-21.1-37.1-32.7-54.8s-23.9-35.1-37.7-51.1a2.7,2.7,0,0,0-3.4-.7,2.8,2.8,0,0,0-1.4,3.8h0c8.7,18.8,15.6,38.2,21.7,57.8s11.4,39.4,15.8,59.3,8.2,39.9,10.9,59.6c1.2,8.9,2.1,17.8,2.8,26.6l36.7,36.6a750.1,750.1,0,0,0,13.8-83.4C227.9,340.2,219,322.4,209.6,305Z" fill="white"/>
			</symbol>
			<symbol id="i-inv-seed" viewBox="0 0 500 500">
				<use href="#wheat" transform="translate(180 10) scale(.65)"/>
				<use href="#die-slash"/>
				<use href="#slug" transform="translate(15 210) scale(.65)"/>
			</symbol>
			<symbol id="i-nectar-seed" viewBox="0 0 500 500">
				<use href="#wheat" transform="translate(180 10) scale(.65)"/>
				<use href="#die-slash"/>
				<use href="#flower" transform="translate(0 235) scale(.53)"/>
			</symbol>
			<symbol id="i-nectar-fruit" viewBox="0 0 500 500">
				<use href="#berries" transform="translate(240 15) scale(.50)"/>
				<use href="#die-slash"/>
				<use href="#flower" transform="translate(0 235) scale(.53)"/>
			</symbol>
			<symbol id="i-invertebrate" viewBox="0 0 500 430">
				<use href="#slug"/>
			</symbol>
			<symbol id="i-nectar" viewBox="0 0 500 500">
				<use href="#flower"/>
			</symbol>
			<symbol id="i-nest-bowl" viewBox="0 0 500 500">
				<use href="#disk" fill="var(--taupe)"/>
				<path d="M252,105.2c-120.8,0-168.1,51.9-168.1,118,0,101,75.3,182.9,168.1,182.9s168.2-81.9,168.2-182.9C420.2,160.9,370.7,105.2,252,105.2Zm-1.7,131.6c-67.9,0-133.7-21.9-133.7-49s65.8-58.5,133.7-58.5,133.8,31.4,133.8,58.5S318.2,236.8,250.3,236.8Z" fill="white"/>
			</symbol>
			<symbol id="i-nest-cavity" viewBox="0 0 500 500">
				<use href="#disk" fill="var(--taupe)"/>
				<path d="M136.9,39.1c32,157,29.1,264.8,1.4,422.6a238.9,238.9,0,0,0,221.4,1C338.9,270.3,331,153.8,351.3,33.2h0a238.5,238.5,0,0,0-214.4,5.9ZM304.7,246.3c0,41.6-24.9,75.4-55.6,75.4s-55.6-33.8-55.6-75.4S218.4,171,249.1,171,304.7,204.7,304.7,246.3Z" fill="white"/>
			</symbol>
			<symbol id="i-nest-ground" viewBox="0 0 500 500">
				<use href="#disk" fill="var(--taupe)"/>
				<path d="M117.4,186.1c-13-36.4,24.1-64.5,64.4-56.3,32.3,6.4,72.5,25.7,72.9,58.5-28,2.5-51.4,12.4-65.2,26.6C173.9,192.7,144.7,183.4,117.4,186.1Zm216.2,33.7c19.9-14,51.3-24.5,78.8-21.9-8-62.2-122.1-49.7-138.5-10.1C299.9,188.9,322.3,201.6,333.6,219.8ZM176,244.8a42.3,42.3,0,0,1,5.6-19.6c-13.6-24.1-44.9-30.4-71.4-26.4-71.5,7.1-93.4,71-9,78.8C114.6,259.5,142.5,246.9,176,244.8Zm283.9,5c-9.3-54.8-89.5-44.9-121.1-19.1a49.3,49.3,0,0,1,2.7,17.9c29.3-3.9,63.7,11.2,71.3,41.3C438.5,285.7,462.3,277,459.9,249.8ZM271.5,281.3c14-13.8,37-25.2,57.7-30.5,3.1-35.7-37.4-55.4-71.5-50.6-31.3,3.6-65.2,14.1-69.6,44.3,25.7.7,52.6,12.8,64.3,35.9C258.4,280.9,265,281.3,271.5,281.3Zm-30.3,3.9c-22.6-42.5-97.8-31.8-125-6.2-39.6,43.1,29.7,60.2,70.3,59.2C222.3,341,260.7,322.8,241.2,285.2Zm160,7.8c-14.3-45.3-76.4-36.5-108.2-13.1-33.4,20.6-44.9,60.8,1.6,73.9C333.7,366.7,412.3,348.1,401.2,293Z" fill="white"/>
			</symbol>
			<symbol id="i-nest-platform" viewBox="0 0 500 500">
				<use href="#disk" fill="var(--taupe)"/>
				<path d="M432.6,318.9v29a14.9,14.9,0,0,1-14.9,14.9H93.6a14.9,14.9,0,0,1-14.9-14.9v-29A14.9,14.9,0,0,1,93.6,304H417.7A14.9,14.9,0,0,1,432.6,318.9ZM134.2,235.7l61.1-14.1L67.7,181.5a15.9,15.9,0,1,0-10.3,30.1ZM83,176.3l124.9,42.4,58.9-13.6L93.2,146.2a13.4,13.4,0,0,0-4.8-.8C71.8,145.1,66.6,170.9,83,176.3Zm354,86.6L340.1,230l-58.8,13.6L426.7,293c7.6,2.7,16.7-1.8,19.1-9.4S445.5,265.7,437,262.9Zm-8.3-46.1-68,15.4,57.5,19.6,16.7-3.8C455.4,243.4,449.3,213.3,428.7,216.8Zm-2.1-11.4c13.5-2.7,15.5-22.2,4.2-29a14.6,14.6,0,0,0-11.3-2L65.7,256.1a15.3,15.3,0,0,0-10.8,19.7,15,15,0,0,0,18,11.3ZM205.1,272c-8,11.2,2.8,27.5,16.3,24.4L342.2,269l-57.5-19.5-69.4,15.7A15.7,15.7,0,0,0,205.1,272Z" fill="white"/>
			</symbol>
			<symbol id="i-nest-star" viewBox="0 0 500 500">
				<use href="#disk" fill="var(--taupe)"/>
				<polygon points="250 63.1 308.6 181.8 439.6 200.8 344.8 293.3 367.2 423.7 250 362.1 132.8 423.7 155.2 293.3 60.4 200.8 191.4 181.8 250 63.1" fill="white"/>
			</symbol>
			<symbol id="i-no-food" viewBox="0 0 500 500">
				<path d="M250,0C112.1,0,0,112.1,0,250S112.1,500,250,500,500,387.9,500,250,387.9,0,250,0ZM429,250a177.7,177.7,0,0,1-36.2,107.5L142.5,107.2A177.7,177.7,0,0,1,250,71C348.7,71,429,151.3,429,250ZM71,250a177.4,177.4,0,0,1,24.3-89.7L339.6,404.7A177,177,0,0,1,250,429C151.3,429,71,348.7,71,250Z" fill="var(--taupe)"/>
			</symbol>
			<symbol id="i-or" viewBox="0 0 184 500">
				<path d="M147.4,0h3.3c21.7,4.8,32.5,11.9,32.5,21.3q0,3.3-21.3,55.9-32.4,102-48.1,195.7Q90.4,385.4,61.2,485.5C54.9,495.2,47.1,500,37.7,500H33.3C11.6,500,.8,494.4.8,483.2c0-2.2,4.9-18.3,14.6-48.1q31.4-91.2,76-310.9Q123.7,0,147.4,0Z" fill="var(--taupe)"/>
			</symbol>
			<symbol id="i-play-bird" viewBox="0 0 500 500">
				<title>Play a Bird</title>
				<use href="#habitat-bkg" fill="var(--play-bird-purple)"/>
				<path d="M331.8,357.6c-40.2,2.7-67.9-26.4-73.5-65.2-2.8-15.3,20.8-18,23.6-2.8C286,316,301.3,335.4,329,334c50-4.2,58.3-73.5,13.9-90.2-18-6.9-43-6.9-65.2-6.9H111.3c-15.2,0-15.2-23.6,0-23.6H277.7c23.6,0,51.3,0,74.9,8.4C420.6,248,405.3,350.6,331.8,357.6ZM155.7,198.1H258.3c15.3,0,33.3,0,48.5-5.6,45.8-18,36.1-88.7-13.8-92.9-27.8-2.8-47.2,18-51.3,44.4-1.4,15.3,22.2,18,23.5,2.8,2.8-13.9,9.7-25,25-23.6,26.3,2.8,30.5,37.4,6.9,47.1-9.7,4.2-24.9,4.2-38.8,4.2H155.7C140.4,174.5,140.4,198.1,155.7,198.1Zm62.4,63.8c-15.3-7-33.3-7-47.2-7H66.9c-15.2,0-15.2,23.6,0,23.6h104c12.5,0,27.8,0,38.9,4.2,22.2,9.7,18,45.7-8.4,47.1-13.8,1.4-22.1-9.7-24.9-23.6s-25-11-22.2,4.2c2.8,26.4,22.2,45.8,49.9,43C254.1,349.2,263.9,279.9,218.1,261.9Z" fill="white"/>
			</symbol>
			<symbol id="i-point-value" viewBox="0 0 264 500">
				<use href="#pt-3" transform="translate(-126 0)"/>
				<use href="#pt-feather" transform="translate(-126 0)"	/>
			</symbol>
			<symbol id="i-points-gt-4" viewBox="0 0 390 500">
				<use href="#pt-gt"/>
				<use href="#pt-4"/>
				<use href="#pt-feather"/>
			</symbol>
			<symbol id="i-points-lteq-3" viewBox="0 0 390 500">
				<use href="#pt-lteq"/>
				<use href="#pt-3"/>
				<use href="#pt-feather"/>
			</symbol>
			<symbol id="i-predator" viewBox="0 0 500 500">
				<rect width="500" height="500" rx="37.9" fill="var(--dark-brown)"/>
				<path d="M318.6,293c105.1-78.4,37.9-251-57.3-258-73.4-8.5-152.4,91.7-126.7,191.2,18,42.3,34,46.4,56.6,66.4,11.8,10.4,14.5,38.9,21.6,52.5,14.5,18.8,24.2,64.7,37,80.4,13-14.9,27.4-61.6,42.6-78.4C296.6,333.7,307.1,302.7,318.6,293ZM152.7,238.2c-15.4-20.9-18.2-55.9-7.8-68.8,14.5-18.2,40.4,5.5,62.2,35C262.7,280.6,204.4,304,152.7,238.2Zm82,117.7s-6.8-35.4-10.3-44,13.9-5.8,15.6,1.5,2.5,53,2.5,53C237.3,366.4,234.7,355.9,234.7,355.9Zm41.8-44c-3.5,8.6-10.3,44-10.3,44s-2.6,10.5-7.8,10.5c0,0,.8-45.6,2.5-53S280.1,303.4,276.5,311.9Zm.9-37.7c-32.8-18.1,50.7-139,77.3-104.8,10.4,12.9,7.6,47.9-7.8,68.8C325.8,266.9,292.2,283.8,277.4,274.2Zm118.5-20.4c-11.3-31.1,32.3-53,50.5-25,9.6,10.7-3,27.2,9.4,35.9,35.7,34.7-28.5,75.9-45.1,28.5-26.7,9.9-80.4,29.7-107.1,39.4,4.8-13.2,11.8-29.2,18.8-35.1a203.4,203.4,0,0,0,22.4-22l52.1-19ZM38.6,283.3c-.1-14.5,19.2-19.1,15.8-33.3a25.8,25.8,0,0,1,3.7-20.6c19.9-29.2,63.7-4.3,49.4,27.7l55.2,20.1c16.7,13.4,32,21.3,36.4,44.9l-14.2,5.1L93.7,293.8C85.3,327.2,33.5,318.2,38.6,283.3ZM465.2,378c.1,14.5-19.2,19-15.7,33.3a26.3,26.3,0,0,1-3.8,20.6c-19.8,29.2-63.7,4.3-49.4-27.7l-108-40.3c5.1-9.1,10.1-13.1,12.5-23.5l19.8-7.2,89.5,34.4C418.4,334.3,470.4,342.7,465.2,378Zm-303.9,6.4L107,404.2c17.4,47.5-59,56.8-53.2,7.1a14.5,14.5,0,0,0-5.6-15.2c-34.5-35.8,28.3-76.6,45.5-29.2l107-39c3.4,16.5,9.5,22.9,16,36.3Z" fill="white"/>
			</symbol>
			<symbol id="i-reset-birdfeeder" viewBox="0 0 500 500">
				<image width="500" height="500" href="/static/images/components/food-die-oe.webp"/>
				<use href="#reset-symbol" transform="translate(80 0)"/>
			</symbol>
			<symbol id="i-reset-bird-tray" viewBox="0 0 344 500">
				<image width="334" height="490" transform="translate(5 5)" href="/static/images/components/bird-card-back.webp"/>
				<path d="M302.2,500H41.9C9.5,500,1,473.2,1,459.1V40.9C1,8.6,27.7,0,41.9,0H302.2C334.5,0,343,26.8,343,40.9V459.1C343,491.5,316.3,500,302.2,500ZM41.9,12.3c-3.1,0-28.7,1.1-28.7,28.6V459.1c0,2.9,1,28.6,28.7,28.6H302.2c2.9,0,28.6-1,28.6-28.6V40.9c0-2.9-1-28.6-28.6-28.6Z" fill="white"/>
				<use href="#reset-symbol"/>
			</symbol>
			<symbol id="i-rodent" viewBox="0 0 500 300">
				<use href="#rat"/>
			</symbol>
			<symbol id="i-seed" viewBox="0 0 468 500">
				<use href="#wheat"/>
			</symbol>
			<symbol id="i-tucked" viewBox="0 0 365 500">
				<use href="#i-bird-card" transform="translate(-8) scale(.9)"/>
				<use href="#i-bird" transform="translate(42 50) scale(.9)"/>
			</symbol>
			<symbol id="i-wetland" viewBox="0 0 500 500">
				<use href="#habitat-bkg" fill="var(--wetland-blue)"/>
				<path d="M72.7,192.7c33.9,19.5,81.5,6.5,100.8-27.1,3.2-6.2,13-5.6,15.6.8,20.1,31.8,59,46.8,92.3,25.1,10.8-6.8,22.9-15,28.3-26.5,3.2-7.1,10.9-4.7,15.8-.9a113.2,113.2,0,0,0,19.2,20c21.2,19.1,54.5,18.5,78.1,4.9,28.4-1-51.9,51.4-104.7-5-36.6,36.9-99.2,40.7-136.4,2.9-29.3,29.2-78.2,36.4-112.6,12.2C65.3,196.7,68.5,190.7,72.7,192.7Zm350.1,47.8c-23.6,13.6-56.9,14.2-78.1-4.9a112.7,112.7,0,0,1-19.2-19.9l-4.5-2.8c-14.5-7.1-8.3,20.4-55.8,37.2-28.9,12.5-60.5-8.3-76.1-32.2-2.6-6.4-12.4-7-15.6-.7-19.3,33.5-66.9,46.5-100.8,27-4.2-2-7.4,4-3.6,6.5,34.4,24.1,83.3,16.9,112.6-12.3,37.2,37.9,99.8,34,136.4-2.9C371.1,292,451.1,239.5,422.8,240.5Zm0,57c-23.6,13.7-56.9,14.2-78.1-4.8a116.8,116.8,0,0,1-19.2-20L321,270c-14.5-7.2-8.3,20.3-55.8,37.1-28.9,12.5-60.5-8.3-76.1-32.1-2.6-6.5-12.4-7-15.6-.8-19.3,33.6-66.9,46.5-100.8,27.1-4.2-2.1-7.4,4-3.6,6.4,34.4,24.1,83.3,16.9,112.6-12.3,37.2,37.9,99.8,34.1,136.4-2.9C371.1,349,451.1,296.5,422.8,297.5Z" fill="white"/>
			</symbol>
			<symbol id="i-wingspan" viewBox="0 0 500 262">
				<path d="M186.6,193.2,83,216.9,54.4,196l115.7-21.3a1.5,1.5,0,0,0,1.2-1.7,1.5,1.5,0,0,0-1.6-1.3L37,183.3,0,158.8H165.7A131.9,131.9,0,0,0,186.6,193.2ZM130,251.3l.7.5a56.5,56.5,0,0,0,33.1,10.1q31.8.2,75.3-30.5a167.5,167.5,0,0,1-22.6-12.2Zm63.6-50.6-98,25.4,23,16.9L208,213.2A124.2,124.2,0,0,1,193.6,200.7Zm136.7-29L463,183.2l37-24.4H334.3a128,128,0,0,1-21,34.4L417,216.9,445.5,196,329.9,174.7a1.5,1.5,0,0,1-1.2-1.7A1.5,1.5,0,0,1,330.3,171.7Zm-69.4,59.7c29,20.5,54.1,30.6,75.3,30.6a56.6,56.6,0,0,0,33.1-10.2l.7-.5-86.6-32.1A150.7,150.7,0,0,1,260.9,231.4ZM292,213.2,381.4,243l23-16.9-98-25.4A124.2,124.2,0,0,1,292,213.2Z" fill="var(--taupe)"/>
				<path d="M164.3,54.8c4.2,4.1,6.3,14.2,6.3,30.1,0,18-4,29.6-12,34.6a39.4,39.4,0,0,1-19.9,5.5c-10,0-15-6.3-15-18.7V97.6c0-5,2.6-7.6,7.8-7.6,3,0,4.5,1.6,4.5,4.9q0,15.6,2.4,15.6.2.6.6.6h.3c5.3,0,10.3-1.9,15.1-5.7,2.4-2.7,3.6-9.8,3.6-21.4V79.8c0-8.3-1.5-14.3-4.5-18.1-5.9,1.9-10.4,2.8-13.3,2.8h-.3c-3.8,0-5.7-1.9-5.7-5.8v-.9c0-4.1,4-6.8,12.1-8.1q6.9-2.4,6.9-6c1.8-3.2,2.7-7.9,2.7-14.2V22.9q0-10.5-9-10.5c-7.5.9-11.2,2.7-11.2,5.4V19q.6,8.5.6,10.8c0,3.5-2,5.2-6,5.2h-1.8c-3.6,0-5.4-5.5-5.4-16.3s7-15.9,21.1-17.8a40.3,40.3,0,0,1,6.9-.9c9,0,14.6,5.9,16.8,17.5.4,3.3.7,8.1.9,14.5Q168.8,45.1,164.3,54.8ZM239.8,7.9c8,7.5,12,19.7,12,36.8q0,62.6-16.8,75.2c-4.7,3.8-10.7,5.7-17.8,5.7-14.1,0-23.3-7.6-27.7-22.8a135.2,135.2,0,0,1-1.8-19V76c0-25.8,3.9-46.6,11.8-62.6,5.2-8.1,10.1-12.1,14.4-12.1a15.1,15.1,0,0,1,6-.9h3C230.3.4,235.9,2.9,239.8,7.9Zm-.9,31.6q0-18.3-8.1-22.8c-2-2.4-3.7-3.6-5.2-3.6h-5.4c-9.3,0-15.3,12.9-18,38.8-1,3.2-1.8,12.1-2.4,26.8,0,16.4,2.7,27,8.1,31.6q5.8,2.7,9.3,2.7c7.6,0,12.9-4.8,15.7-14.5,4-17.8,6-33.5,6-46.9Zm57.6,56q-2.4.1-2.4,2.1v1.8c0,8.6-1.1,13.4-3.2,14.4-8.7-.6-13.1-3.6-13.1-9,.6-20.9.9-37,.9-48.5V47q0-12,8.1-12h4.5q.9,0,1.2,11.7c0,6,1.2,9,3.4,9H298q6.9-.5,6.9-3.6,0-16.3-1.2-20.4c-1.4-6.5-3.9-9.7-7.5-9.7h-9.1c-6.8,0-11.7,1.2-14.4,3.6-4.4,4.7-6.6,18-6.6,40.1,0,7.7.1,22.7.3,45.1a14.3,14.3,0,0,0,6.3,12.1c6.1,2.8,11.5,4.2,16.3,4.2a19.8,19.8,0,0,0,7-1.1c6.3-2.8,9.5-9,9.5-18.7a53.6,53.6,0,0,0-.3-5.5Q305.2,96.3,296.5,95.5Zm77.7-4.1V89.3c1-37.5,1.5-59.7,1.5-66.4q0-6.1-7.5-6.9a7.4,7.4,0,0,0-6.3,3c-2.1,6.6-7.3,19.4-15.7,38.2q-17.7-40.3-20.8-40.8c-7,2.1-10.5,5.4-10.5,10q2.1,70.5,4.2,94.2,0,4.8,3.6,4.8h1.5c4.4,0,7.3-1.3,8.8-3.9-.9-8.8-2.4-33.7-4.9-74.7,7.3,18.7,12.7,28.9,16.3,30.7h2.4a2.9,2.9,0,0,0,1.8-.6c1.2-.9,5.6-9.4,13.3-25.6-.5,25.7-.6,41.3-.6,46.7a129.4,129.4,0,0,0,1.8,20.5q0,7.8,5.7,7.8,8.1-.5,8.1-3.6A188.2,188.2,0,0,1,374.2,91.4Z" fill="var(--taupe)"/>
			</symbol>
			<symbol id="i-all-pink-powers" viewBox="0 0 438 500">
				<image width="438" height="500" href="/static/images/components/brush-pink-short.webp"/>
				<text font-size="80" transform="translate(30 180)">activate</text>
				<text font-size="80" transform="translate(40 290)">all pink</text>
				<text font-size="80" transform="translate(65 400)">powers</text>
			</symbol>
			<symbol id="g-birds-in-forest" class="goal-tile" viewBox="0 0 500 500">
				<use href="#goal-bkg"/>
				<use href="#i-bird" transform="translate(174 55) scale(.3)"/>
				<text font-size="80" transform="translate(222 285)">in</text>
				<use href="#i-forest" transform="translate(174 310) scale(.3)"/>
			</symbol>
			<symbol id="g-birds-in-grassland" class="goal-tile" viewBox="0 0 500 500">
				<use href="#goal-bkg"/>
				<use href="#i-bird" transform="translate(174 55) scale(.3)"/>
				<text font-size="80" transform="translate(222 285)">in</text>
				<use href="#i-grassland" transform="translate(174 310) scale(.3)"/>
			</symbol>
			<symbol id="g-birds-in-wetland" class="goal-tile" viewBox="0 0 500 500">
				<use href="#goal-bkg"/>
				<use href="#i-bird" transform="translate(174 55) scale(.3)"/>
				<text font-size="80" transform="translate(222 285)">in</text>
				<use href="#i-wetland" transform="translate(174 310) scale(.3)"/>
			</symbol>
			<symbol id="g-eggs-in-forest" class="goal-tile" viewBox="0 0 500 500">
				<use href="#goal-bkg"/>
				<use href="#i-egg" transform="translate(174 55) scale(.3)"/>
				<text font-size="80" transform="translate(222 285)">in</text>
				<use href="#i-forest" transform="translate(174 310) scale(.3)"/>
			</symbol>
			<symbol id="g-eggs-in-grassland" class="goal-tile" viewBox="0 0 500 500">
				<use href="#goal-bkg"/>
				<use href="#i-egg" transform="translate(174 55) scale(.3)"/>
				<text font-size="80" transform="translate(222 285)">in</text>
				<use href="#i-grassland" transform="translate(174 310) scale(.3)"/>
			</symbol>
			<symbol id="g-eggs-in-wetland" class="goal-tile" viewBox="0 0 500 500">
				<use href="#goal-bkg"/>
				<use href="#i-egg" transform="translate(174 55) scale(.3)"/>
				<text font-size="80" transform="translate(222 285)">in</text>
				<use href="#i-wetland" transform="translate(174 310) scale(.3)"/>
			</symbol>
			<symbol id="g-eggs-in-bowl" class="goal-tile" viewBox="0 0 500 500">
				<use href="#goal-bkg"/>
				<use href="#i-egg" transform="translate(174 55) scale(.3)"/>
				<text font-size="80" transform="translate(222 285)">in</text>
				<use href="#i-nest-bowl" transform="translate(174 310) scale(.3)"/>
			</symbol>
			<symbol id="g-eggs-in-cavity" class="goal-tile" viewBox="0 0 500 500">
				<use href="#goal-bkg"/>
				<use href="#i-egg" transform="translate(174 55) scale(.3)"/>
				<text font-size="80" transform="translate(222 285)">in</text>
				<use href="#i-nest-cavity" transform="translate(174 310) scale(.3)"/>
			</symbol>
			<symbol id="g-eggs-in-ground" class="goal-tile" viewBox="0 0 500 500">
				<use href="#goal-bkg"/>
				<use href="#i-egg" transform="translate(174 55) scale(.3)"/>
				<text font-size="80" transform="translate(222 285)">in</text>
				<use href="#i-nest-ground" transform="translate(174 310) scale(.3)"/>
			</symbol>
			<symbol id="g-eggs-in-platform" class="goal-tile" viewBox="0 0 500 500">
				<use href="#goal-bkg"/>
				<use href="#i-egg" transform="translate(174 55) scale(.3)"/>
				<text font-size="80" transform="translate(222 285)">in</text>
				<use href="#i-nest-platform" transform="translate(174 310) scale(.3)"/>
			</symbol>
			<symbol id="g-bowl-with-egg" class="goal-tile" viewBox="0 0 500 500">
				<use href="#goal-bkg"/>
				<use href="#i-nest-bowl" transform="translate(100 55) scale(.3)"/>
				<use href="#i-bird" transform="translate(250 55) scale(.3)"/>
				<text font-size="80" transform="translate(188 285)">with</text>
				<use href="#i-egg" transform="translate(174 310) scale(.3)"/>
			</symbol>
			<symbol id="g-cavity-with-egg" class="goal-tile" viewBox="0 0 500 500">
				<use href="#goal-bkg"/>
				<use href="#i-nest-cavity" transform="translate(100 55) scale(.3)"/>
				<use href="#i-bird" transform="translate(250 55) scale(.3)"/>
				<text font-size="80" transform="translate(188 285)">with</text>
				<use href="#i-egg" transform="translate(174 310) scale(.3)"/>
			</symbol>
			<symbol id="g-ground-with-egg" class="goal-tile" viewBox="0 0 500 500">
				<use href="#goal-bkg"/>
				<use href="#i-nest-ground" transform="translate(100 55) scale(.3)"/>
				<use href="#i-bird" transform="translate(250 55) scale(.3)"/>
				<text font-size="80" transform="translate(188 285)">with</text>
				<use href="#i-egg" transform="translate(174 310) scale(.3)"/>
			</symbol>
			<symbol id="g-platform-with-egg" class="goal-tile" viewBox="0 0 500 500">
				<use href="#goal-bkg"/>
				<use href="#i-nest-platform" transform="translate(100 55) scale(.3)"/>
				<use href="#i-bird" transform="translate(250 55) scale(.3)"/>
				<text font-size="80" transform="translate(188 285)">with</text>
				<use href="#i-egg" transform="translate(174 310) scale(.3)"/>
			</symbol>
			<symbol id="g-egg-habitat-sets" class="goal-tile" viewBox="0 0 500 500">
				<use href="#goal-bkg"/>
				<text font-size="70" transform="translate(135 85)">sets of</text>
				<use href="#i-egg" transform="translate(85 103) scale(.25)"/>
				<use href="#i-egg" transform="translate(187 103) scale(.25)"/>
				<use href="#i-egg" transform="translate(289 103) scale(.25)"/>
				<text font-size="75" transform="translate(222 295)">in</text>
				<use href="#i-forest" transform="translate(55 320) scale(.25)"/>
				<use href="#i-grassland" transform="translate(187 320) scale(.25)"/>
				<use href="#i-wetland" transform="translate(320 320) scale(.25)"/>
			</symbol>
			<symbol id="g-total-birds" class="goal-tile" viewBox="0 0 500 500">
				<use href="#goal-bkg"/>
				<text font-size="80" transform="translate(172 175)">total</text>
				<use href="#i-bird" transform="translate(174 200) scale(.3)"/>
			</symbol>
			<symbol id="g-inv-in-cost" class="goal-tile" viewBox="0 0 500 500">
				<use href="#goal-bkg"/>
				<use href="#i-invertebrate" transform="translate(174 55) scale(.3)"/>
				<text font-size="70" transform="translate(40 300)">in food cost of</text>
				<text font-size="70" transform="translate(105 380)">your birds</text>
			</symbol>
			<symbol id="g-no-goal" class="goal-tile" viewBox="0 0 500 500">
				<use href="#goal-bkg"/>
				<text font-size="80" transform="translate(120 280)">no goal</text>
			</symbol>
			<symbol id="g-beak-lt" class="goal-tile" viewBox="0 0 500 500">
				<use href="#goal-bkg"/>
				<use href="#i-beak-lt" transform="translate(150 50) scale(.35)"/>
				<text font-size="80" transform="translate(170 300)">beak</text>
				<text font-size="80" transform="translate(105 375)">pointing</text>
				<text font-size="80" transform="translate(175 450)">left</text>
			</symbol>
			<symbol id="g-beak-rt" class="goal-tile" viewBox="0 0 500 500">
				<use href="#goal-bkg"/>
				<use href="#i-beak-rt" transform="translate(175 50) scale(.35)"/>
				<text font-size="80" transform="translate(170 300)">beak</text>
				<text font-size="80" transform="translate(105 375)">pointing</text>
				<text font-size="80" transform="translate(175 450)">right</text>
			</symbol>
			<symbol id="g-cubes-on-play-bird" class="goal-tile" viewBox="0 0 500 500">
				<use href="#goal-bkg"/>
				<use href="#action-cube" transform="translate(180 80) scale(.3)"/>
				<text font-size="80" transform="translate(95 320)">cubes on</text>
				<text font-size="70" transform="translate(60 395)">“play a bird”</text>
			</symbol>
			<symbol id="g-rodent-fish-in-cost" class="goal-tile" viewBox="0 0 500 500">
				<use href="#goal-bkg"/>
				<use href="#i-rodent" transform="translate(60 100) scale(.3)"/>
				<text font-size="60" transform="translate(215 220) scale(2)">+</text>
				<use href="#i-fish" transform="translate(295 100) scale(.3)"/>
				<text font-size="70" transform="translate(35 320)">in food cost of</text>
				<text font-size="70" transform="translate(105 395)">your birds</text>
			</symbol>
			<symbol id="g-fruit-seed-in-cost" class="goal-tile" viewBox="0 0 500 500">
				<use href="#goal-bkg"/>
				<use href="#i-fruit" transform="translate(60 100) scale(.3)"/>
				<text font-size="60" transform="translate(215 220) scale(2)">+</text>
				<use href="#i-seed" transform="translate(295 100) scale(.3)"/>
				<text font-size="70" transform="translate(35 320)">in food cost of</text>
				<text font-size="70" transform="translate(105 395)">your birds</text>
			</symbol>
			<symbol id="g-birds-3pt-or-under" class="goal-tile" viewBox="0 0 500 500">
				<use href="#goal-bkg"/>
				<use href="#i-bird" transform="translate(174 55) scale(.3)"/>
				<text font-size="80" transform="translate(165 290)">worth</text>
				<use href="#pt-lteq" transform="translate(195 310) scale(.3)"/>
				<use href="#pt-3" transform="translate(195 310) scale(.3)"/>
				<use href="#pt-feather" transform="translate(195 310) scale(.3)"/>
			</symbol>
			<symbol id="g-food-owned" class="goal-tile" viewBox="0 0 500 500">
				<use href="#goal-bkg"/>
				<image width="500" height="500" href="/static/images/diagrams/food-wild.webp" transform="translate(174 80) scale(.3)"/>
				<text font-size="80" transform="translate(70 320)">in personal</text>
				<text font-size="80" transform="translate(135 395)">supply</text>
			</symbol>
			<symbol id="g-birds-over-4pt" class="goal-tile" viewBox="0 0 500 500">
				<use href="#goal-bkg"/>
				<use href="#i-bird" transform="translate(174 55) scale(.3)"/>
				<text font-size="80" transform="translate(165 290)">worth</text>
				<use href="#pt-gt" transform="translate(195 310) scale(.3)"/>
				<use href="#pt-4" transform="translate(195 310) scale(.3)"/>
				<use href="#pt-feather" transform="translate(195 310) scale(.3)"/>
			</symbol>
			<symbol id="g-birds-in-one-row" class="goal-tile" viewBox="0 0 500 500">
				<use href="#goal-bkg"/>
				<use href="#i-bird" transform="translate(174 55) scale(.3)"/>
				<text font-size="80" transform="translate(222 290)">in</text>
				<text font-size="80" transform="translate(105 375)">one row</text>
			</symbol>
			<symbol id="g-brown-powers" class="goal-tile" viewBox="0 0 500 500">
				<use href="#goal-bkg"/>
				<image width="200" height="78" href="/static/images/components/brush-brown-double.webp" transform="translate(25 175) scale(2.25 2)"/>
				<text font-size="65" transform="translate(54.5 275)">brown powers</text>
			</symbol>
			<symbol id="g-white-no-powers" class="goal-tile" viewBox="0 0 500 500">
				<use href="#goal-bkg"/>
				<image width="200" height="78" href="/static/images/components/brush-white-double.webp" transform="translate(25 110) scale(2.25 3.5)"/>
				<text font-size="75" transform="translate(125 240)">white &amp;</text>
				<text font-size="75" transform="translate(95 305)">no powers</text>
			</symbol>
			<symbol id="g-birds-with-tucked-cards" class="goal-tile" viewBox="0 0 500 500">
				<use href="#goal-bkg"/>
				<use href="#i-bird-card" transform="translate(160 60) scale(.3)"/>
				<use href="#i-bird" transform="translate(190 90) scale(.3)"/>
				<text font-size="67" transform="translate(110 320)">birds with</text>
				<text font-size="67" transform="translate(60 395)">tucked cards</text>
			</symbol>
			<symbol id="g-filled-columns" class="goal-tile" viewBox="0 0 500 500">
				<use href="#goal-bkg"/>
				<text font-size="80" transform="translate(160 240)">filled</text>
				<text font-size="80" transform="translate(100 315)">columns</text>
			</symbol>
			<symbol id="g-eggless-birds" class="goal-tile" viewBox="0 0 500 500">
				<use href="#goal-bkg"/>
				<use href="#i-bird" transform="translate(174 55) scale(.3)"/>
				<text font-size="80" transform="translate(120 285)">with no</text>
				<use href="#i-egg" transform="translate(174 310) scale(.3)"/>
			</symbol>
			<symbol id="g-birds-in-hand" class="goal-tile" viewBox="0 0 500 500">
				<use href="#goal-bkg"/>
				<use href="#i-bird-card" transform="translate(174 55) scale(.3)"/>
				<text font-size="80" transform="translate(215 290)">in</text>
				<text font-size="80" transform="translate(165 365)">hand</text>
			</symbol>
			<symbol id="g-birds-food-cost" class="goal-tile" viewBox="0 0 500 500">
				<use href="#goal-bkg"/>
				<text font-size="80" transform="translate(100 155)">food cost</text>
				<text font-size="80" transform="translate(100 235)">of played</text>
				<use href="#i-bird" transform="translate(174 270) scale(.3)"/>
			</symbol>
			<symbol id="g-duets-in-forest" class="goal-tile duet" viewBox="0 0 500 500">
				<use href="#goal-bkg"/>
				<image width="500" height="500" href="/static/images/components/duet-tokens.webp" transform="translate(174 60) scale(.3)"/>
				<text font-size="80" transform="translate(222 285)">in</text>
				<use href="#i-forest" transform="translate(174 310) scale(.3)"/>
			</symbol>
			<symbol id="g-duets-in-grassland" class="goal-tile duet" viewBox="0 0 500 500">
				<use href="#goal-bkg"/>
				<image width="500" height="500" href="/static/images/components/duet-tokens.webp" transform="translate(174 60) scale(.3)"/>
				<text font-size="80" transform="translate(222 285)">in</text>
				<use href="#i-grassland" transform="translate(174 310) scale(.3)"/>
			</symbol>
			<symbol id="g-duets-in-wetland" class="goal-tile duet" viewBox="0 0 500 500">
				<use href="#goal-bkg"/>
				<image width="500" height="500" href="/static/images/components/duet-tokens.webp" transform="translate(174 60) scale(.3)"/>
				<text font-size="80" transform="translate(222 285)">in</text>
				<use href="#i-wetland" transform="translate(174 310) scale(.3)"/>
			</symbol>
			<symbol id="g-duets-in-a-row" class="goal-tile duet" viewBox="0 0 500 500">
				<use href="#goal-bkg"/>
				<image width="500" height="500" href="/static/images/components/duet-tokens.webp" transform="translate(174 50) scale(.3)"/>
				<text font-size="65" transform="translate(115 280)">in any one</text>
				<text font-size="65" transform="translate(55 355)">horizontal row</text>
			</symbol>
			<symbol id="g-rows-with-duets" class="goal-tile duet" viewBox="0 0 500 500">
				<use href="#goal-bkg"/>
				<text font-size="65" transform="translate(25 180)">horizontal rows</text>
				<text font-size="65" transform="translate(60 250)">with at least</text>
				<text font-size="65" transform="translate(100 320)">one of your</text>
				<image width="500" height="500" href="/static/images/components/duet-tokens.webp" transform="translate(174 320) scale(.3)"/>
			</symbol>
			<symbol id="g-duets-in-interior" class="goal-tile duet" viewBox="0 0 500 500">
				<use href="#goal-bkg"/>
				<image width="500" height="500" href="/static/images/components/duet-tokens.webp" transform="translate(174 70) scale(.3)"/>
				<text font-size="80" transform="translate(50 300)">not on edge</text>
				<text font-size="80" transform="translate(140 375)">of map</text>
			</symbol>
			<symbol id="g-duets-on-edge" class="goal-tile duet" viewBox="0 0 500 500">
				<use href="#goal-bkg"/>
				<image width="500" height="500" href="/static/images/components/duet-tokens.webp" transform="translate(174 100) scale(.3)"/>
				<text font-size="60" transform="translate(50 330)">on edge of map</text>
			</symbol>
			<symbol id="g-duets-on-nests" class="goal-tile duet" viewBox="0 0 500 500">
				<use href="#goal-bkg"/>
				<image width="500" height="500" href="/static/images/components/duet-tokens.webp" transform="translate(174 50) scale(.3)"/>
				<text font-size="80" transform="translate(222 265)">on</text>
				<use href="#i-nest-bowl" transform="translate(40 280) scale(.18)"/>
				<use href="#i-nest-cavity" transform="translate(150 280) scale(.18)"/>
				<use href="#i-nest-ground" transform="translate(260 280) scale(.18)"/>
				<use href="#i-nest-platform" transform="translate(370 280) scale(.18)"/>
			</symbol>
			<symbol id="g-duets-on-food" class="goal-tile duet" viewBox="0 0 500 500">
				<use href="#goal-bkg"/>
				<image width="500" height="500" href="/static/images/components/duet-tokens.webp" transform="translate(174 50) scale(.3)"/>
				<text font-size="80" transform="translate(222 265)">on</text>
				<use href="#i-fish" transform="translate(40 280) scale(.15)"/>
				<use href="#i-fruit" transform="translate(130 280) scale(.15)"/>
				<use href="#i-rodent" transform="translate(220 280) scale(.15)"/>
				<use href="#i-seed" transform="translate(310 280) scale(.15)"/>
				<use href="#i-invertebrate" transform="translate(400 280) scale(.15)"/>
			</symbol>
			<symbol id="logo-stonemaier-games" viewBox="0 0 336 500">
				<path d="M331.2,91.8,172.1,0h-8.2L4.8,91.8l-4,7.1V282.6l4,7.1,159.1,91.8h8.2l159.1-91.8,4-7.1V98.9ZM318.9,277.9,168,365,17.1,277.9V103.6L168,16.5l150.9,87.1ZM26.7,108.2l-.8,1.5V271.8l.8,1.5,140.5,81.1h1.6l140.5-81.1.8-1.5V109.7l-.8-1.5L168.8,27.1h-1.6Zm280.1,2.4V270.9L168,351.1,29.2,270.9V110.6L168,30.4ZM33.2,456.8c0,5.7-4.5,9.1-10.8,9.1A18.4,18.4,0,0,1,9.7,461l3.2-3.8c2.9,2.5,5.8,3.9,9.6,3.9s5.4-1.5,5.4-3.8-1.2-3.4-6.9-4.7-10.1-3.5-10.1-9.1,4.3-8.9,10.4-8.9a17.3,17.3,0,0,1,11,3.8l-2.9,4.1a13.1,13.1,0,0,0-8.2-3.1c-3.1,0-5,1.6-5,3.6s1.4,3.4,7.3,4.8S33.2,451.7,33.2,456.8Zm5.7-21.7H63.5V440H53.9v25.4H48.5V440H38.9Zm96.3,30.3h-4.5L114,443.8v21.6h-5.3V435.1h5l16.2,21v-21h5.3Zm15.3-25.6v7.9h15.2v4.8H150.5v8.2h17.4v4.7H145.2V435.1h22.5v4.7Zm50.8-4.6h5.6v30.4h-5.3V443.8L192,458.1h-.2l-9.5-14.2v21.7h-5.2V435.2h5.7l9.2,14.3Zm26.4-.2-13.4,30.6h5.5l3.1-7.4h14.4l3.1,7.4H246L232.6,435Zm-2.8,18.5,5.2-12.2,5.2,12.2Zm28.8-18.3H259v30.4h-5.3Zm20.9,25.6H292v4.8H269.3V435.2h22.5v4.7H274.6v8h15.3v4.7H274.6Zm50.8-16c0-5.9-4.3-9.6-11.3-9.6H300.5v30.4h5.4V455h6.7l7.4,10.6h6.3L318.1,454C322.4,452.9,325.4,449.8,325.4,444.8Zm-19.5,5.4V440h7.7c4,0,6.3,1.8,6.3,5.1s-2.4,5.1-6.2,5.1ZM88.3,441.9H79.6l-.7.4-4.3,7.5v.9l4.3,7.5.7.4h8.7l.8-.4,4.3-7.5v-.9l-4.3-7.5ZM87.9,457H80.1l-3.8-6.7,3.8-6.8h7.8l3.8,6.8Zm3.6-22.1h-15l-2.1,1.2L67,449v2.5l7.4,12.9,2.1,1.2h15l2.1-1.2,7.4-12.9V449l-7.4-12.9ZM90,460.7H78l-6.1-10.4L78,439.8H90l6.1,10.5Zm26.8,29.2h7.6v7.3A11.3,11.3,0,0,1,117,500c-5.7,0-9.3-4.2-9.3-9.4a9.2,9.2,0,0,1,9.2-9.5,9.7,9.7,0,0,1,6.8,2.4l-1.3,1.6a8,8,0,0,0-5.6-2.1c-4,0-6.9,3.4-6.9,7.5s2.8,7.6,7.2,7.6a8.9,8.9,0,0,0,5.3-1.8v-4.5h-5.6Zm24.2-8.6-8.3,18.4h2.1l2.2-4.8h9.9l2.1,4.8h2.3l-8.4-18.4ZM137.8,493l4.1-9.3,4.2,9.3Zm37.7-11.6h2.1v18.3h-2.1V484.9l-6.6,9.8h-.1l-6.7-9.8v14.8h-2V481.4h2.1l6.6,10ZM190,497.8h11.3v1.9H188V481.4h13.2v1.9H190v6.2h10v1.9H190Zm33.2-3c0,3.1-2.6,5.1-6.3,5.1a10.5,10.5,0,0,1-7.4-2.9l1.3-1.5a8.7,8.7,0,0,0,6.2,2.6c2.5,0,4.1-1.3,4.1-3.1s-.9-2.7-4.8-3.5-6.1-2.3-6.1-5.3,2.5-5,6-5a9.2,9.2,0,0,1,6.4,2.2l-1.2,1.6a7.9,7.9,0,0,0-5.2-2c-2.4,0-3.9,1.3-3.9,3s.9,2.7,4.9,3.6S223.2,491.9,223.2,494.8ZM74.8,283.5H120a18.9,18.9,0,0,0,18.6-18.6V198.8A18.7,18.7,0,0,0,120,180.2H86.3V137.7h21.9v31.2l30.4-7V126.2A18.7,18.7,0,0,0,120,107.6H74.8a18.6,18.6,0,0,0-18.6,18.6v65.6a18.6,18.6,0,0,0,18.6,18.6h33.4v42.7H86.3V221.7l-30.1,7v36.2A18.8,18.8,0,0,0,74.8,283.5Zm47.5-17.9-11.6-11.5V209.6l11.6-11.3Zm0-112.5-11.6,11.5V136.7l11.6-11.5ZM70,194.8l-7.5,7.5a15.4,15.4,0,0,1-4.1-10.5V126.2a15.6,15.6,0,0,1,4.1-10.6l7.5,7.6Zm-5.8-80.9a16.1,16.1,0,0,1,10.6-4.1H120a17.1,17.1,0,0,1,10.3,3.8l-7.8,7.8H71.8ZM74.3,194l11.3-11.3H120a16.4,16.4,0,0,1,10.6,3.8l-7.8,7.5Zm34.4,61.6,11.6,11.5h-46l11.3-11.5ZM81.3,225.2,71,235.5,60.7,230Zm-22.9,6.5,11.6,6v29.9l-7.5,7.8a15.7,15.7,0,0,1-4.1-10.5ZM190.1,197l11.8,44.8h29.4L243.4,197v86.5h30.1V107.6H243.6l-26.9,84.9-26.8-84.9H160V283.5h30.1Zm67.1,70.6-11.6,11.6V187.7l11.6-58.5ZM269,109.8l-10.8,10.8-10.8-10.8Zm-51,87,27.1-85.7,10.3,10L218,225.2Zm-44.2,70.8-11.6,11.6V111.6l11.6,11.6ZM164,109.8h21.8l-11,10.8Zm50,118.1-10.3,10.3-13.6-50.7L179.8,135Z"/>
			</symbol>
			<symbol id="g-duets-on-pairs" class="goal-tile duet" viewBox="0 0 500 500">
				<use href="#goal-bkg"/>
				<image width="500" height="500" href="/static/images/components/duet-tokens.webp" transform="translate(174 50) scale(.3)"/>
				<text font-size="80" transform="translate(80 280)">on pairs of</text>
				<text font-size="80" transform="translate(100 355)">matching</text>
				<text font-size="80" transform="translate(120 430)">symbols</text>
			</symbol>
			<symbol id="g-total-duets" class="goal-tile duet" viewBox="0 0 500 500">
				<use href="#goal-bkg"/>
				<text font-size="80" transform="translate(170 160)">total</text>
				<image width="500" height="500" href="/static/images/components/duet-tokens.webp" transform="translate(174 180) scale(.3)"/>
				<text font-size="80" transform="translate(120 400)">on map</text>
			</symbol>
			<symbol id="g-fewest-bonus-duets" class="goal-tile duet" viewBox="0 0 500 500">
				<use href="#goal-bkg"/>
				<text font-size="80" transform="translate(140 120)">fewest</text>
				<image width="500" height="500" href="/static/images/components/duet-tokens.webp" transform="translate(174 130) scale(.3)"/>
				<text font-size="60" transform="translate(40 350)">on bonus spaces</text>
			</symbol>
		</svg>
